<svg id="Capa_1" enable-background="new 0 0 512 512" height="512" viewBox="0 0 512 512" width="512" xmlns="http://www.w3.org/2000/svg" xmlns:xlink="http://www.w3.org/1999/xlink"><linearGradient id="SVGID_1_" gradientUnits="userSpaceOnUse" x1="256" x2="256" y1="512" y2="0"><stop offset="0" stop-color="#c3ffe8"/><stop offset=".9973" stop-color="#f0fff4"/></linearGradient><linearGradient id="SVGID_2_" gradientUnits="userSpaceOnUse" x1="256" x2="256" y1="140.529" y2="371.471"><stop offset="0" stop-color="#00b59c"/><stop offset="1" stop-color="#9cffac"/></linearGradient><g><g><circle cx="256" cy="256" fill="url(#SVGID_1_)" r="256"/></g><g><g><path d="m398.118 140.529h-284.236c-4.91 0-8.882 3.973-8.882 8.882v174.69l55.072-73.428c3.348-4.476 10.86-4.476 14.208 0l46.554 62.072 81.633-97.966c3.383-4.042 10.27-4.042 13.653 0l90.88 109.055v-174.422c0-4.91-3.973-8.883-8.882-8.883zm-177.647 88.824c-14.694 0-26.647-11.953-26.647-26.647s11.953-26.647 26.647-26.647 26.647 11.953 26.647 26.647-11.953 26.647-26.647 26.647zm0-35.53c-4.901 0-8.882 3.981-8.882 8.882s3.981 8.882 8.882 8.882 8.882-3.981 8.882-8.882c0-4.9-3.981-8.882-8.882-8.882zm6.826 138.926c-1.743 2.082-4.493 3.192-7.052 3.192-2.715-.069-5.248-1.379-6.879-3.556l-46.19-61.578-62.176 82.893v8.888c0 4.91 3.973 8.882 8.882 8.882h284.235c4.91 0 8.882-3.973 8.882-8.882v-10.99l-97.706-117.249z" fill="url(#SVGID_2_)"/></g></g></g></svg>