<svg height="478pt" viewBox="-60 0 478 478.01472" width="478pt" xmlns="http://www.w3.org/2000/svg" xmlns:xlink="http://www.w3.org/1999/xlink"><linearGradient id="a"><stop offset="0" stop-color="#00efd1"/><stop offset="1" stop-color="#00acea"/></linearGradient><linearGradient id="b" gradientUnits="userSpaceOnUse" x1="179.007365" x2="179.007365" xlink:href="#a" y1="9.007361" y2="483.045361"/><linearGradient id="c" gradientUnits="userSpaceOnUse" x1="175.880365" x2="175.880365" xlink:href="#a" y1="9.007361" y2="483.045361"/><linearGradient id="d" gradientUnits="userSpaceOnUse" x1="128.971365" x2="128.971365" xlink:href="#a" y1="9.007361" y2="483.045361"/><linearGradient id="e" gradientUnits="userSpaceOnUse" x1="154.907365" x2="154.907365" xlink:href="#a" y1="9.007361" y2="483.045361"/><path d="m275.03125 2.253906c-1.53125-1.511718-3.617188-2.3242185-5.769531-2.2460935h-261.339844c-2.066406-.0898437-4.082031.6679685-5.578125 2.0976565-1.496094 1.433593-2.33984375 3.414062-2.3359375 5.484375v462.835937c-.00390625 2.070313.8398435 4.050781 2.3359375 5.484375 1.496094 1.429688 3.511719 2.1875 5.578125 2.097656h342.171875c2.066406.089844 4.082031-.667968 5.578125-2.097656 1.492187-1.433594 2.335937-3.414062 2.335937-5.484375v-378.734375c.015626-2.03125-.773437-3.984375-2.1875-5.4375zm1.976562 25.203125 54.300782 56.550781h-54.300782zm-261 434.550781v-446h245v75.683594c.097657 4.53125 3.726563 8.1875 8.253907 8.316406h72.746093v362zm0 0" fill="url(#b)"/><path d="m287.386719 387.007812h-223.011719c-4.417969 0-8 3.582032-8 8 0 4.417969 3.582031 8 8 8h223.011719c4.417969 0 8-3.582031 8-8 0-4.417968-3.582031-8-8-8zm0 0" fill="url(#c)"/><path d="m64.375 333.007812c-4.417969 0-8 3.582032-8 8 0 4.417969 3.582031 8 8 8h129.191406c4.417969 0 8-3.582031 8-8 0-4.417968-3.582031-8-8-8zm0 0" fill="url(#d)"/><g fill="url(#e)"><path d="m57.285156 129.859375 7.464844 5.949219c13.09375 10.382812 12.359375 18.511718 2.78125 43.066406l-.515625 1.324219c-9.347656 23.867187-22.144531 56.554687 11.390625 92.253906 15.371094 16.199219 31.621094 16.203125 43.335938 16.199219 7.664062.085937 19.421874 3.273437 27.347656 11.988281 1.515625 1.667969 3.664062 2.617187 5.917968 2.617187 2.253907 0 4.402344-.949218 5.917969-2.617187 7.925781-8.71875 19.632813-11.90625 27.15625-11.992187 1.117188 0 2.21875 0 3.355469-.015626.792969-.007812 1.574219-.023437 2.371094-.046874.410156-.011719.816406-.027344 1.226562-.042969 10.238282-.4375 23.625-2.660157 36.402344-16.128907 33.742188-35.917968 20.1875-70.597656 11.21875-93.546874-1.199219-3.089844-2.59375-6.699219-3.746094-10.035157-2.5-7.214843-3.59375-12.28125-3.558594-16.429687.035157-4.4375 1.21875-9.882813 9.742188-16.640625l7.445312-5.960938c1.710938-1.367187 2.785157-3.375 2.972657-5.554687.1875-2.179688-.523438-4.34375-1.972657-5.984375l-33.644531-38.121094c-2.722656-3.082031-7.34375-3.601563-10.679687-1.191406-25.046875 18.074219-43.113282 9.253906-49.714844 4.625-2.757812-1.933594-6.429688-1.933594-9.1875 0-6.597656 4.632812-24.664062 13.449219-49.714844-4.625-3.339844-2.410157-7.960937-1.890625-10.679687 1.199219l-33.644531 38.167968c-1.449219 1.644532-2.160157 3.808594-1.96875 5.992188.191406 2.179687 1.269531 4.1875 2.980468 5.554687zm40.035156-33.917969c19.667969 11.800782 40.480469 13.121094 57.585938 3.609375 17.101562 9.511719 37.921875 8.195313 57.589844-3.613281l23.492187 26.621094-.867187.691406c-10.664063 8.457031-15.675782 17.679688-15.769532 29.019531-.050781 6.054688 1.316407 12.777344 4.4375 21.792969 1.242188 3.601562 2.699219 7.390625 3.964844 10.625 8.832032 22.601562 18.847656 48.21875-7.949218 76.746094-8.238282 8.683594-16.132813 10.726562-25.453126 11.121094-.34375.015624-.679687.027343-1.023437.039062-.703125.023438-1.378906.035156-2.074219.042969-1.078125.011719-2.121094.011719-3.257812.015625-11.964844.285156-23.523438 4.390625-32.988282 11.714844-9.527343-7.34375-21.148437-11.449219-33.171874-11.714844-10.890626 0-21.179688 0-31.792969-11.183594-26.582031-28.300781-17.199219-52.261719-8.125-75.4375l.519531-1.335938c8.101562-20.757812 16.46875-42.222656-7.726562-61.410156l-.875-.699218zm0 0"/><path d="m125.070312 204.308594-4.300781 25.089844c-.515625 3.003906.71875 6.035156 3.179688 7.828124 2.464843 1.789063 5.730469 2.023438 8.425781.609376l22.53125-11.847657 22.539062 11.847657c2.695313 1.417968 5.960938 1.179687 8.421876-.609376 2.464843-1.789062 3.699218-4.824218 3.183593-7.824218l-4.300781-25.09375 18.226562-17.769532c2.179688-2.128906 2.964844-5.304687 2.023438-8.203124-.9375-2.894532-3.441406-5.003907-6.457031-5.445313l-25.199219-3.660156-11.265625-22.832031c-1.347656-2.730469-4.128906-4.457032-7.175781-4.457032-3.042969 0-5.824219 1.726563-7.171875 4.457032l-11.269531 22.832031-25.195313 3.660156c-3.011719.441406-5.515625 2.550781-6.457031 5.445313-.941406 2.898437-.15625 6.074218 2.023437 8.203124zm17.859376-19.851563c2.605468-.378906 4.855468-2.015625 6.023437-4.375l5.953125-12.066406 5.957031 12.066406c1.164063 2.359375 3.417969 3.996094 6.023438 4.375l13.316406 1.9375-9.636719 9.390625c-1.886718 1.839844-2.746094 4.484375-2.300781 7.082032l2.277344 13.261718-11.910157-6.261718c-2.332031-1.226563-5.117187-1.226563-7.449218 0l-11.910156 6.261718 2.277343-13.261718c.445313-2.597657-.417969-5.242188-2.300781-7.082032l-9.636719-9.390625zm0 0"/></g></svg>