<svg id="Capa_1" enable-background="new 0 0 512 512" height="512" viewBox="0 0 512 512" width="512" xmlns="http://www.w3.org/2000/svg" xmlns:xlink="http://www.w3.org/1999/xlink"><linearGradient id="SVGID_1_" gradientUnits="userSpaceOnUse" x1="74.981" x2="437.019" y1="437.019" y2="74.981"><stop offset="0" stop-color="#0072ff"/><stop offset="1" stop-color="#85ffe0"/></linearGradient><radialGradient id="SVGID_2_" cx="256" cy="256" gradientUnits="userSpaceOnUse" r="256"><stop offset="0" stop-color="#0072ff"/><stop offset=".1353" stop-color="#0a7dfd" stop-opacity=".865"/><stop offset=".3702" stop-color="#2599f6" stop-opacity=".63"/><stop offset=".6764" stop-color="#50c7ec" stop-opacity=".324"/><stop offset="1" stop-color="#85ffe0" stop-opacity="0"/></radialGradient><linearGradient id="lg1"><stop offset="0" stop-color="#009ed8"/><stop offset=".6084" stop-color="#85ffe0"/><stop offset="1" stop-color="#fff"/></linearGradient><linearGradient id="SVGID_3_" gradientUnits="userSpaceOnUse" x1="204.437" x2="381.068" xlink:href="#lg1" y1="83.239" y2="-93.392"/><linearGradient id="SVGID_4_" gradientUnits="userSpaceOnUse" x1="215.338" x2="438.61" xlink:href="#lg1" y1="129.637" y2="-93.636"/><linearGradient id="lg2"><stop offset="0" stop-color="#85ffe0"/><stop offset=".1954" stop-color="#89ffe1"/><stop offset=".3746" stop-color="#94ffe4"/><stop offset=".5476" stop-color="#a6ffe8"/><stop offset=".7167" stop-color="#c1ffef"/><stop offset=".8814" stop-color="#e2fff8"/><stop offset="1" stop-color="#fff"/></linearGradient><linearGradient id="SVGID_5_" gradientUnits="userSpaceOnUse" x1="109.575" x2="332.306" xlink:href="#lg2" y1="578.932" y2="356.2"/><linearGradient id="SVGID_6_" gradientUnits="userSpaceOnUse" x1="154.635" x2="327.819" xlink:href="#lg2" y1="493.405" y2="320.222"/><linearGradient id="SVGID_7_" gradientUnits="userSpaceOnUse" x1="130.603" x2="334.687" xlink:href="#lg2" y1="479.489" y2="275.405"/><linearGradient id="SVGID_8_" gradientUnits="userSpaceOnUse" x1="124.926" x2="372.16" xlink:href="#lg2" y1="444.026" y2="196.791"/><linearGradient id="lg3"><stop offset="0" stop-color="#0072ff" stop-opacity=".4"/><stop offset=".0852" stop-color="#1d91f8" stop-opacity=".366"/><stop offset=".1972" stop-color="#3db3f1" stop-opacity=".321"/><stop offset=".3174" stop-color="#57cfeb" stop-opacity=".273"/><stop offset=".4466" stop-color="#6ce4e6" stop-opacity=".221"/><stop offset=".589" stop-color="#7af3e3" stop-opacity=".164"/><stop offset=".7548" stop-color="#82fce1" stop-opacity=".098"/><stop offset="1" stop-color="#85ffe0" stop-opacity="0"/></linearGradient><linearGradient id="SVGID_9_" gradientUnits="userSpaceOnUse" x1="256" x2="256" xlink:href="#lg3" y1="396.917" y2="250.202"/><linearGradient id="SVGID_10_" gradientUnits="userSpaceOnUse" x1="127.823" x2="329.8" xlink:href="#lg2" y1="421.727" y2="219.75"/><linearGradient id="SVGID_11_" gradientUnits="userSpaceOnUse" x1="123.993" x2="373.189" xlink:href="#lg2" y1="384.367" y2="135.17"/><linearGradient id="SVGID_12_" gradientUnits="userSpaceOnUse" x1="256" x2="256" xlink:href="#lg3" y1="335.417" y2="188.702"/><linearGradient id="SVGID_13_" gradientUnits="userSpaceOnUse" x1="161.575" x2="340.883" xlink:href="#lg2" y1="235.912" y2="56.604"/><linearGradient id="SVGID_14_" gradientUnits="userSpaceOnUse" x1="189.831" x2="371.461" xlink:href="#lg2" y1="177.315" y2="-4.315"/><linearGradient id="SVGID_15_" gradientUnits="userSpaceOnUse" x1="256" x2="256" y1="182.229" y2="84.33"><stop offset="0" stop-color="#85ffe0" stop-opacity="0"/><stop offset=".406" stop-color="#83fde0" stop-opacity=".406"/><stop offset=".559" stop-color="#7df6e2" stop-opacity=".559"/><stop offset=".6694" stop-color="#71eae5" stop-opacity=".669"/><stop offset=".7592" stop-color="#61d9e8" stop-opacity=".759"/><stop offset=".8365" stop-color="#4cc3ed" stop-opacity=".837"/><stop offset=".9051" stop-color="#32a7f3" stop-opacity=".905"/><stop offset=".9659" stop-color="#1488fa" stop-opacity=".966"/><stop offset="1" stop-color="#0072ff"/></linearGradient><linearGradient id="SVGID_16_" gradientUnits="userSpaceOnUse" x1="112.213" x2="340.904" xlink:href="#lg2" y1="376.52" y2="147.829"/><linearGradient id="SVGID_17_" gradientUnits="userSpaceOnUse" x1="167.553" x2="366.973" xlink:href="#lg2" y1="267.979" y2="68.559"/><linearGradient id="SVGID_18_" gradientUnits="userSpaceOnUse" x1="256" x2="256" y1="298.569" y2="91.26"><stop offset="0" stop-color="#0072ff" stop-opacity=".4"/><stop offset=".0093" stop-color="#0476fe" stop-opacity=".396"/><stop offset=".0968" stop-color="#269bf6" stop-opacity=".361"/><stop offset=".1921" stop-color="#44baef" stop-opacity=".323"/><stop offset=".2954" stop-color="#5cd3ea" stop-opacity=".282"/><stop offset=".4098" stop-color="#6ee7e5" stop-opacity=".236"/><stop offset=".5413" stop-color="#7bf5e2" stop-opacity=".184"/><stop offset=".705" stop-color="#83fde1" stop-opacity=".118"/><stop offset="1" stop-color="#85ffe0" stop-opacity="0"/></linearGradient><linearGradient id="SVGID_19_" gradientUnits="userSpaceOnUse" x1="196.24" x2="316.497" xlink:href="#lg2" y1="198.814" y2="78.557"/><linearGradient id="SVGID_20_" gradientUnits="userSpaceOnUse" x1="195.654" x2="320.074" xlink:href="#lg2" y1="144.764" y2="20.344"/><g><circle cx="256" cy="256" fill="url(#SVGID_1_)" r="256"/><circle cx="256" cy="256" fill="url(#SVGID_2_)" r="256"/><path d="m218.5 30.367c-8.279.359-15.077 7.616-15.175 16.038-.197 17.811-.368 35.621-.513 53.432 10.131-.414 20.262-.71 30.393-.888 10.211-23.21 20.334-46.382 30.295-69.355-15-.128-30 .129-45 .773z" fill="url(#SVGID_3_)"/><path d="m293.5 30.367c-10-.429-20-.686-30-.772-16.547-.145-30.05 14.028-30.144 30.967-.056 12.796-.106 25.592-.15 38.388 25.328-.444 50.655-.148 75.983.888-.146-17.811-.317-35.621-.513-53.432-.099-8.423-6.897-15.68-15.176-16.039z" fill="url(#SVGID_4_)"/><path d="m340.011 365.799c-35.543-8.362-71.224-18.268-106.992-28.846 15.409 46.212 30.714 92.516 45.482 138.195 15-.386 30-1.158 45-2.317 16.546-1.313 30.287-16.32 30.626-32.831.387-20 .711-40 .974-60 .111-8.273-6.652-14.593-15.09-14.201z" fill="url(#SVGID_5_)"/><path d="m308.837 443.328c.208-20.355.383-40.71.524-61.065.061-8.426-6.736-15.044-15.175-14.867-20.322-9.769-40.721-20.012-61.168-30.444-20.408 10.041-40.761 19.751-61.029 28.846-8.439-.392-15.201 5.928-15.089 14.201.263 20 .587 40 .974 60 .34 16.511 14.08 31.518 30.626 32.831 30 2.317 60 3.089 90 2.317 16.546-.437 30.145-14.991 30.337-31.819z" fill="url(#SVGID_6_)"/><path d="m340.442 305.373c-35.778-9.274-71.628-19.51-107.499-29.84 20.511 30.763 41.011 61.669 61.243 91.864 15.275-.333 30.549-.865 45.824-1.598 8.433-.415 15.352-7.527 15.437-15.799.1-10 .186-20 .255-30 .06-8.273-6.779-14.804-15.26-14.627z" fill="url(#SVGID_7_)"/><path d="m309.549 351.731c.054-10.178.1-20.355.137-30.533.033-8.425-6.822-15.16-15.303-15.08-20.45-10.006-40.939-20.296-61.439-30.586-20.489 10.183-40.961 20.225-61.386 29.84-8.481-.177-15.32 6.354-15.26 14.627.07 10 .155 20 .255 30 .086 8.271 7.004 15.384 15.437 15.799 40.732 1.953 81.465 2.485 122.197 1.598 8.433-.188 15.314-7.241 15.362-15.665z" fill="url(#SVGID_8_)"/><path d="m340.442 305.373c-28.102-9.445-56.262-19.56-84.442-29.81-28.18 10.25-56.341 20.366-84.442 29.81-8.481-.177-15.32 6.354-15.26 14.627.07 10 .155 20 .255 30 .086 8.271 7.004 15.384 15.437 15.799 56.007 2.685 112.014 2.685 168.021 0 8.433-.415 15.352-7.527 15.437-15.799.1-10 .186-20 .255-30 .059-8.273-6.78-14.804-15.261-14.627z" fill="url(#SVGID_9_)"/><path d="m340.56 244.947c-35.881-10.185-71.766-20.753-107.606-30.834 20.458 30.621 41.02 61.574 61.429 92.006 15.353-.155 30.706-.404 46.059-.746 8.478-.2 15.39-7.101 15.423-15.373.039-10 .062-20 .07-30 .006-8.272-6.884-15.015-15.375-15.053z" fill="url(#SVGID_10_)"/><path d="m309.773 290.666c.021-10.177.033-20.355.037-30.533.004-8.425-6.884-15.275-15.375-15.293-20.502-10.243-41.006-20.58-61.482-30.728-20.494 10.325-41.008 20.698-61.514 30.834-8.491.038-15.381 6.781-15.375 15.053.008 10 .031 20 .07 30 .033 8.272 6.945 15.173 15.423 15.373 40.942.911 81.883 1.16 122.825.746 8.479-.091 15.373-7.028 15.391-15.452z" fill="url(#SVGID_11_)"/><path d="m340.56 244.947c-28.193-10.161-56.393-20.634-84.56-30.884-28.167 10.25-56.367 20.724-84.56 30.884-8.491.038-15.381 6.781-15.375 15.053.008 10 .031 20 .07 30 .033 8.272 6.945 15.173 15.423 15.373 56.295 1.253 112.59 1.253 168.885 0 8.478-.2 15.39-7.101 15.423-15.373.039-10 .062-20 .07-30 .005-8.272-6.885-15.015-15.376-15.053z" fill="url(#SVGID_12_)"/><path d="m309.188 99.837c-25.328-1.035-50.655-1.331-75.983-.888-.062 17.914-.114 35.828-.155 53.743 25.499-.288 50.999-.096 76.498.577-.094-17.81-.214-35.621-.36-53.432z" fill="url(#SVGID_13_)"/><path d="m278.795 98.95c-25.328-.444-50.655-.148-75.983.888-.146 17.811-.266 35.621-.361 53.432 25.499-.673 50.999-.865 76.498-.577-.04-17.915-.092-35.829-.154-53.743z" fill="url(#SVGID_14_)"/><path d="m309.188 99.837c-35.459-1.45-70.918-1.45-106.376 0-.146 17.811-.266 35.621-.361 53.432 35.699-.942 71.398-.942 107.098 0-.095-17.81-.215-35.621-.361-53.432z" fill="url(#SVGID_15_)"/><path d="m346.417 172.65c-12.379-16.515-24.745-33.207-37.055-49.913-15.246-.528-30.492-.83-45.738-.905 10.205 41.044 20.552 82.142 30.813 123.009 15.375.022 30.749.058 46.124.107 8.491.015 15.371-6.674 15.351-14.947-.023-10-.062-20-.116-30-.053-9.734-3.352-19.307-9.379-27.351z" fill="url(#SVGID_16_)"/><path d="m303.507 171.465c-8.236-16.465-16.458-32.983-24.638-49.482-25.41-.377-50.82-.126-76.231.755-12.31 16.706-24.677 33.399-37.055 49.913-6.026 8.044-9.326 17.617-9.379 27.35-.054 10-.093 20-.116 30-.02 8.272 6.86 14.962 15.351 14.947 40.999-.13 81.998-.166 122.996-.107 8.491.006 15.373-6.815 15.362-15.24-.013-10.177-.033-20.355-.062-30.533-.027-9.908-2.218-19.587-6.228-27.603z" fill="url(#SVGID_17_)"/><path d="m346.417 172.65c-12.379-16.515-24.745-33.207-37.055-49.913-35.574-1.232-71.149-1.232-106.723 0-12.31 16.706-24.677 33.399-37.055 49.913-6.026 8.044-9.326 17.617-9.379 27.35-.054 10-.093 20-.116 30-.02 8.272 6.86 14.962 15.351 14.947 56.373-.179 112.747-.179 169.12 0 8.491.015 15.371-6.674 15.351-14.947-.023-10-.062-20-.116-30-.052-9.733-3.351-19.306-9.378-27.35z" fill="url(#SVGID_18_)"/><path d="m309.124 92.204c-10.119-.435-20.238-.746-30.357-.932.019 5.118.037 10.237.053 15.355 10.143.169 20.285.45 30.428.843 4.202.161 7.578-3.095 7.537-7.3-.039-4.204-3.47-7.785-7.661-7.966z" fill="url(#SVGID_19_)"/><path d="m286.393 99.105c-.021-4.234-3.435-7.755-7.626-7.833-25.297-.466-50.595-.155-75.892.932-4.191.182-7.622 3.762-7.662 7.966-.04 4.205 3.336 7.461 7.537 7.3 25.357-.984 50.713-1.265 76.07-.843 4.203.069 7.594-3.286 7.573-7.522z" fill="url(#SVGID_20_)"/></g></svg>