<svg id="Capa_1" enable-background="new 0 0 512 512" height="512" viewBox="0 0 512 512" width="512" xmlns="http://www.w3.org/2000/svg" xmlns:xlink="http://www.w3.org/1999/xlink"><linearGradient id="lg1"><stop offset="0" stop-color="#230be0"/><stop offset="1" stop-color="#f2d5ff"/></linearGradient><linearGradient id="SVGID_1_" gradientUnits="userSpaceOnUse" x1="46.08" x2="486.356" xlink:href="#lg1" y1="465.92" y2="25.644"/><radialGradient id="SVGID_2_" cx="256.001" cy="256" gradientUnits="userSpaceOnUse" r="256"><stop offset="0" stop-color="#3b2bb2"/><stop offset=".162" stop-color="#5a42c1" stop-opacity=".838"/><stop offset=".5645" stop-color="#a179e2" stop-opacity=".436"/><stop offset=".8542" stop-color="#ce9cf7" stop-opacity=".146"/><stop offset="1" stop-color="#dfa9ff" stop-opacity="0"/></radialGradient><linearGradient id="SVGID_3_" gradientUnits="userSpaceOnUse" x1="138.852" x2="365.98" xlink:href="#lg1" y1="174.073" y2="-53.055"/><linearGradient id="SVGID_4_" gradientUnits="userSpaceOnUse" x1="149.128" x2="414.685" xlink:href="#lg1" y1="252.695" y2="-12.862"/><linearGradient id="SVGID_5_" gradientUnits="userSpaceOnUse" x1="112.805" x2="412.39" xlink:href="#lg1" y1="219.903" y2="-79.681"/><linearGradient id="SVGID_6_" gradientUnits="userSpaceOnUse" x1="255.992" x2="255.992" y1="151.999" y2="42.369"><stop offset="0" stop-color="#230be0"/><stop offset=".0473" stop-color="#381ce3" stop-opacity=".953"/><stop offset=".1619" stop-color="#6441eb" stop-opacity=".838"/><stop offset=".2816" stop-color="#8a61f1" stop-opacity=".718"/><stop offset=".4052" stop-color="#a97bf6" stop-opacity=".595"/><stop offset=".5338" stop-color="#c190fa" stop-opacity=".466"/><stop offset=".6697" stop-color="#d29efd" stop-opacity=".33"/><stop offset=".8176" stop-color="#dca6fe" stop-opacity=".182"/><stop offset="1" stop-color="#dfa9ff" stop-opacity="0"/></linearGradient><linearGradient id="SVGID_7_" gradientUnits="userSpaceOnUse" x1="-44.652" x2="285.627" y1="505.986" y2="175.707"><stop offset="0" stop-color="#c96ff8"/><stop offset=".5" stop-color="#dda2fc"/><stop offset=".5933" stop-color="#e1adfc"/><stop offset=".7555" stop-color="#ebc9fd"/><stop offset=".9658" stop-color="#fcf7ff"/><stop offset="1" stop-color="#fff"/></linearGradient><linearGradient id="lg2"><stop offset="0" stop-color="#dda2fc"/><stop offset=".1867" stop-color="#e1adfc"/><stop offset=".511" stop-color="#ebc9fd"/><stop offset=".9317" stop-color="#fcf7ff"/><stop offset="1" stop-color="#fff"/></linearGradient><linearGradient id="SVGID_8_" gradientUnits="userSpaceOnUse" x1="291.344" x2="564.2" xlink:href="#lg2" y1="444.101" y2="171.245"/><linearGradient id="SVGID_9_" gradientUnits="userSpaceOnUse" x1="101.496" x2="503.668" xlink:href="#lg2" y1="491.299" y2="89.126"/><linearGradient id="SVGID_10_" gradientUnits="userSpaceOnUse" x1="255.988" x2="255.988" y1="546.523" y2="250.704"><stop offset="0" stop-color="#dfa9ff" stop-opacity="0"/><stop offset=".4071" stop-color="#dda8fe" stop-opacity=".407"/><stop offset=".5537" stop-color="#d6a2fb" stop-opacity=".554"/><stop offset=".6583" stop-color="#cb99f5" stop-opacity=".658"/><stop offset=".7428" stop-color="#ba8cee" stop-opacity=".743"/><stop offset=".8152" stop-color="#a47be3" stop-opacity=".815"/><stop offset=".8793" stop-color="#8866d7" stop-opacity=".879"/><stop offset=".9373" stop-color="#684ec8" stop-opacity=".937"/><stop offset=".9888" stop-color="#4432b7" stop-opacity=".989"/><stop offset="1" stop-color="#3b2bb2"/></linearGradient><radialGradient id="SVGID_11_" cx="255.468" cy="318.395" gradientUnits="userSpaceOnUse" r="51.468"><stop offset="0" stop-color="#3b2bb2"/><stop offset=".2484" stop-color="#7255cc" stop-opacity=".752"/><stop offset=".4916" stop-color="#a179e2" stop-opacity=".508"/><stop offset=".7057" stop-color="#c393f2" stop-opacity=".294"/><stop offset=".8825" stop-color="#d8a3fc" stop-opacity=".118"/><stop offset="1" stop-color="#dfa9ff" stop-opacity="0"/></radialGradient><linearGradient id="SVGID_12_" gradientUnits="userSpaceOnUse" x1="255.988" x2="255.988" y1="403.246" y2="211.819"><stop offset="0" stop-color="#dfa9ff" stop-opacity="0"/><stop offset=".1175" stop-color="#d8a3fc" stop-opacity=".118"/><stop offset=".2943" stop-color="#c393f2" stop-opacity=".294"/><stop offset=".5084" stop-color="#a179e2" stop-opacity=".508"/><stop offset=".7516" stop-color="#7255cc" stop-opacity=".752"/><stop offset="1" stop-color="#3b2bb2"/></linearGradient><linearGradient id="SVGID_13_" gradientUnits="userSpaceOnUse" x1="-45.976" x2="446.834" xlink:href="#lg2" y1="515.78" y2="22.97"/><linearGradient id="SVGID_14_" gradientUnits="userSpaceOnUse" x1=".344" x2="442.429" xlink:href="#lg2" y1="553.865" y2="111.779"/><linearGradient id="SVGID_15_" gradientUnits="userSpaceOnUse" x1="115.766" x2="350.672" xlink:href="#lg1" y1="375.63" y2="140.724"/><linearGradient id="SVGID_16_" gradientUnits="userSpaceOnUse" x1="139.395" x2="355.6" xlink:href="#lg1" y1="416.556" y2="200.351"/><linearGradient id="SVGID_17_" gradientUnits="userSpaceOnUse" x1="93.787" x2="375.048" xlink:href="#lg1" y1="434.376" y2="153.115"/><linearGradient id="SVGID_18_" gradientUnits="userSpaceOnUse" x1="80.806" x2="357.473" xlink:href="#lg2" y1="468.392" y2="191.726"/><linearGradient id="SVGID_19_" gradientUnits="userSpaceOnUse" x1="234.714" x2="283.605" xlink:href="#lg2" y1="308.209" y2="259.319"/><linearGradient id="lg3"><stop offset="0" stop-color="#c96ff8" stop-opacity="0"/><stop offset=".1563" stop-color="#c26df7" stop-opacity=".078"/><stop offset=".3874" stop-color="#ae66f4" stop-opacity=".194"/><stop offset=".665" stop-color="#8d5bef" stop-opacity=".333"/><stop offset=".9763" stop-color="#604ce9" stop-opacity=".488"/><stop offset="1" stop-color="#5c4ae8" stop-opacity=".5"/></linearGradient><radialGradient id="SVGID_20_" cx="255.988" cy="286.938" gradientUnits="userSpaceOnUse" r="13.554" xlink:href="#lg3"/><linearGradient id="SVGID_21_" gradientUnits="userSpaceOnUse" x1="234.744" x2="283.57" xlink:href="#lg2" y1="338.929" y2="290.103"/><radialGradient id="SVGID_22_" cx="255.989" cy="317.688" gradientUnits="userSpaceOnUse" r="13.536" xlink:href="#lg3"/><g><circle cx="256" cy="256" fill="url(#SVGID_1_)" r="256"/><circle cx="256" cy="256" fill="url(#SVGID_2_)" r="256"/><path d="m221 71.846c-5 .045-10 .099-15 .163-8.276.108-15.124 7.085-15.272 15.547-.347 20.437-.627 40.875-.842 61.312 5.085-.047 10.17-.088 15.255-.124.124-15.347.277-30.694.458-46.041 5.161-10.284 10.298-20.571 15.401-30.857z" fill="url(#SVGID_3_)"/><path d="m306 71.996c-15-.187-30-.289-45-.306 5.013 10.255 10.068 20.519 15.155 30.787 10.079.041 20.159.112 30.238.215.177 15.348.327 30.696.449 46.045 5.085.035 10.17.076 15.255.122-.211-20.439-.488-40.878-.829-61.318-.147-8.463-6.991-15.44-15.268-15.545z" fill="url(#SVGID_4_)"/><path d="m261 71.69c-13.333-.015-26.667.037-40 .156-8.277.075-15.094 7.036-15.21 15.51-.067 5.116-.13 10.231-.191 15.347 23.519-.245 47.037-.321 70.556-.226-.023-5.124-.048-10.247-.074-15.371-.049-8.488-6.802-15.407-15.081-15.416z" fill="url(#SVGID_5_)"/><path d="m306 71.996c-33.333-.416-66.666-.412-100 .013-8.276.108-15.124 7.085-15.272 15.547-.347 20.437-.627 40.875-.842 61.312 5.085-.047 10.17-.088 15.255-.124.124-15.347.277-30.694.458-46.041 33.598-.35 67.196-.354 100.794-.011.177 15.348.327 30.696.449 46.045 5.085.035 10.17.076 15.255.122-.211-20.439-.488-40.878-.829-61.318-.147-8.463-6.991-15.44-15.268-15.545z" fill="url(#SVGID_6_)"/><path d="m143.284 271.362c-20.491-.073-40.983-.165-61.475-.277.258 40.151 1.203 80.301 2.836 120.452.7 16.606 14.813 30.682 31.354 31.289 10 .354 20 .67 30 .949-1.601-50.805-2.506-101.609-2.715-152.413z" fill="url(#SVGID_7_)"/><path d="m368.691 271.365c-.207 50.812-1.104 101.624-2.691 152.436 10-.276 20-.59 30-.941 16.541-.602 30.649-14.678 31.346-31.288 1.623-40.161 2.563-80.321 2.82-120.482-20.492.112-40.984.204-61.475.275z" fill="url(#SVGID_8_)"/><path d="m112.547 271.238c.213 40.423.992 80.846 2.337 121.269.581 16.723 14.576 30.789 31.116 31.266 73.333 2.042 146.667 2.052 220 .028 16.539-.473 30.531-14.539 31.107-31.265 1.336-40.431 2.109-80.863 2.321-121.294-95.627.429-191.254.427-286.881-.004z" fill="url(#SVGID_9_)"/><path d="m81.81 271.085c.258 40.151 1.203 80.301 2.836 120.452.7 16.605 14.813 30.682 31.354 31.289 93.333 3.305 186.667 3.317 280 .036 16.541-.602 30.649-14.679 31.346-31.288 1.623-40.161 2.563-80.321 2.82-120.482-116.119.63-232.238.628-348.356-.007z" fill="url(#SVGID_10_)"/><path d="m302.094 271.53c-30.737.044-61.475.043-92.212-.001.03 17.911.095 35.822.196 53.733.177 25.419 20.786 46.23 45.916 46.238 25.129-.003 45.734-20.813 45.909-46.233.097-17.913.161-35.825.191-53.737z" fill="url(#SVGID_11_)"/><path d="m81.81 271.085c.064 10.038.172 20.075.322 30.113.258 16.607 14.286 30.374 31.159 30.675 95.133 1.581 190.266 1.586 285.399.017 16.872-.299 30.899-14.068 31.155-30.679.149-10.04.256-20.08.32-30.12-116.118.631-232.237.629-348.355-.006z" fill="url(#SVGID_12_)"/><path d="m276.716 131.661c-64.2-.21-128.401.581-192.602 2.374-8.396.24-15.448 7.166-15.708 15.444-1.231 40-1.717 80-1.456 120 .111 16.543 14.085 30.165 31.02 30.38 105.691 1.193 211.382 1.193 317.073 0 16.935-.214 30.908-13.837 31.02-30.38.034-5.189.055-10.378.064-15.567-56.331-39.731-113.46-81.273-169.411-122.251z" fill="url(#SVGID_13_)"/><path d="m446.127 253.912c.058-34.811-.448-69.622-1.52-104.433-.258-8.278-7.311-15.203-15.708-15.444-50.728-1.417-101.456-2.208-152.184-2.374 28.209 67.897 92.961 116.871 169.412 122.251z" fill="url(#SVGID_14_)"/><path d="m225.243 233.135c-8.489.007-15.38 6.887-15.381 15.365 0 17.911.035 35.822.105 53.733.017 4.239 3.464 7.689 7.697 7.704 4.231.014 7.655-3.417 7.643-7.66 5.053-23.035 10.174-46.089 15.307-69.149-5.123.001-10.247.004-15.371.007z" fill="url(#SVGID_15_)"/><path d="m286.732 233.135c-5.124-.003-10.248-.006-15.372-.007 5.132 23.061 10.254 46.115 15.31 69.152-.009 4.243 3.41 7.675 7.644 7.661 4.233-.014 7.679-3.464 7.696-7.703.069-17.912.103-35.824.103-53.737-.001-8.479-6.892-15.36-15.381-15.366z" fill="url(#SVGID_16_)"/><path d="m271.36 233.127c-10.248-.003-20.496-.003-30.744 0-8.488.004-15.376 6.888-15.378 15.372 0 17.926.023 35.851.071 53.777 20.454.047 40.907.048 61.361.002.045-17.926.068-35.853.068-53.779-.001-8.484-6.89-15.368-15.378-15.372z" fill="url(#SVGID_17_)"/><path d="m286.737 248.5c-20.5 0-41 0-61.5 0 0 25.608.048 51.216.144 76.824.078 16.966 13.799 30.798 30.611 30.801 16.811 0 30.53-13.831 30.606-30.798.093-25.609.139-51.218.139-76.827z" fill="url(#SVGID_18_)"/><path d="m263.667 286.936c-.002 4.245-3.439 7.689-7.678 7.689s-7.677-3.444-7.679-7.689c-.004-4.245 3.438-7.686 7.678-7.686 4.242 0 7.682 3.441 7.679 7.686z" fill="url(#SVGID_19_)"/><path d="m263.667 286.936c-.002 4.245-3.439 7.689-7.678 7.689s-7.677-3.444-7.679-7.689c-.004-4.245 3.438-7.686 7.678-7.686 4.242 0 7.682 3.441 7.679 7.686z" fill="url(#SVGID_20_)"/><path d="m263.648 317.685c-.005 4.245-3.432 7.69-7.658 7.69-4.224 0-7.655-3.445-7.659-7.691-.004-4.245 3.427-7.685 7.658-7.684 4.233 0 7.664 3.44 7.659 7.685z" fill="url(#SVGID_21_)"/><path d="m263.648 317.685c-.005 4.245-3.432 7.69-7.658 7.69-4.224 0-7.655-3.445-7.659-7.691-.004-4.245 3.427-7.685 7.658-7.684 4.233 0 7.664 3.44 7.659 7.685z" fill="url(#SVGID_22_)"/></g></svg>