<svg height="507pt" viewBox="-21 0 507 507.76288" width="507pt" xmlns="http://www.w3.org/2000/svg" xmlns:xlink="http://www.w3.org/1999/xlink"><linearGradient id="a"><stop offset="0" stop-color="#00efd1"/><stop offset="1" stop-color="#00acea"/></linearGradient><linearGradient id="b" gradientTransform="matrix(1 0 0 -1 -23.61856 512.254883)" gradientUnits="userSpaceOnUse" x1="258.85" x2="258.85" xlink:href="#a" y1="510" y2="7.936"/><linearGradient id="c" gradientTransform="matrix(1 0 0 -1 -23.61856 512.254883)" gradientUnits="userSpaceOnUse" x1="256.621" x2="256.621" xlink:href="#a" y1="510" y2="7.936"/><linearGradient id="d" gradientTransform="matrix(1 0 0 -1 -23.61856 512.254883)" gradientUnits="userSpaceOnUse" x1="56.411" x2="56.411" xlink:href="#a" y1="510" y2="7.936"/><linearGradient id="e" gradientTransform="matrix(1 0 0 -1 -23.61856 512.254883)" gradientUnits="userSpaceOnUse" x1="121.302" x2="121.302" xlink:href="#a" y1="510" y2="7.936"/><linearGradient id="f" gradientTransform="matrix(1 0 0 -1 -23.61856 512.254883)" gradientUnits="userSpaceOnUse" x1="88.858" x2="88.858" xlink:href="#a" y1="510" y2="7.936"/><linearGradient id="g" gradientTransform="matrix(1 0 0 -1 -23.61856 512.254883)" gradientUnits="userSpaceOnUse" x1="221.412" x2="221.412" xlink:href="#a" y1="510" y2="7.936"/><linearGradient id="h" gradientTransform="matrix(1 0 0 -1 -23.61856 512.254883)" gradientUnits="userSpaceOnUse" x1="286.302" x2="286.302" xlink:href="#a" y1="510" y2="7.936"/><linearGradient id="i" gradientTransform="matrix(1 0 0 -1 -23.61856 512.254883)" gradientUnits="userSpaceOnUse" x1="253.857" x2="253.857" xlink:href="#a" y1="510" y2="7.936"/><linearGradient id="j" gradientTransform="matrix(1 0 0 -1 -23.61856 512.254883)" gradientUnits="userSpaceOnUse" x1="256" x2="256" xlink:href="#a" y1="510" y2="7.936"/><linearGradient id="k" gradientTransform="matrix(1 0 0 -1 -23.61856 512.254883)" gradientUnits="userSpaceOnUse" x1="386.411" x2="386.411" xlink:href="#a" y1="510" y2="7.936"/><linearGradient id="l" gradientTransform="matrix(1 0 0 -1 -23.61856 512.254883)" gradientUnits="userSpaceOnUse" x1="451.302" x2="451.302" xlink:href="#a" y1="510" y2="7.936"/><linearGradient id="m" gradientTransform="matrix(1 0 0 -1 -23.61856 512.254883)" gradientUnits="userSpaceOnUse" x1="418.857" x2="418.857" xlink:href="#a" y1="510" y2="7.936"/><path d="m163.128906 221.097656c.832032 1.054688 1.949219 1.851563 3.21875 2.289063 55.425782 38.074219 131.1875 24.328125 169.707032-30.785157 38.519531-55.117187 25.386718-130.984374-29.417969-169.949218-54.800781-38.964844-130.773438-26.445313-170.179688 28.042968-39.402343 54.488282-27.496093 130.558594 26.671875 170.402344zm12.453125-8.363281-.445312-43.769531c-.003907-.238282-.015625-.472656-.042969-.707032-.769531-6.902343 1.417969-13.804687 6.023438-19 4.601562-5.199218 11.191406-8.203124 18.136718-8.273437.191406 0 .378906-.011719.570313-.03125l2.757812-.253906 10.082031 37.703125c.722657 2.703125 2.988282 4.71875 5.761719 5.117187 2.773438.402344 5.515625-.890625 6.976563-3.28125.097656-.160156.1875-.324219.273437-.492187l8.976563-17.757813 10.1875 17.765625c1.410156 2.453125 4.15625 3.820313 6.960937 3.460938 2.804688-.359375 5.121094-2.371094 5.867188-5.101563l10.320312-37.832031 2.378907-.023438c6.941406-.070312 13.585937 2.804688 18.292968 7.90625 4.707032 5.101563 7.035156 11.957032 6.40625 18.871094-.023437.234375-.03125.472656-.03125.707032l.453125 44.585937c-36.199219 24.40625-83.542969 24.5625-119.90625.402344zm58.597657-71.171875h.335937l-.160156.535156zm1.050781-126.816406c44.238281-.019532 84.015625 26.949218 100.363281 68.058594 16.347656 41.105468 5.960938 88.027343-26.210938 118.394531l-.339843-33.257813c.878906-10.800781-2.828125-21.472656-10.214844-29.402344-7.382813-7.929687-17.765625-12.386718-28.601563-12.273437l-7.667968.078125c-3.128906.03125-5.855469 2.136719-6.679688 5.15625l-7.277344 26.664062-2.929687-5.109374 5.007813-16.570313c.644531-2.132813.234374-4.445313-1.101563-6.226563-1.339844-1.78125-3.445313-2.820312-5.671875-2.800781l-19.390625.203125c-2.226563.019532-4.3125 1.101563-5.613281 2.910156-1.300782 1.808594-1.660156 4.128907-.972656 6.25l5.378906 16.582032-1.851563 3.667968-6.867187-25.691406c-.882813-3.292968-4.011719-5.476562-7.40625-5.160156l-8.371094.769531c-10.78125.195313-20.992188 4.894531-28.148438 12.960938-7.160156 8.066406-10.609374 18.765625-9.519531 29.492187l.328125 32.117188c-32.390625-30.273438-42.976562-77.273438-26.695312-118.507813 16.28125-41.238281 56.121094-68.324219 100.457031-68.304687zm0 0" fill="url(#b)"/><path d="m233.222656 127.335938h.386719c20.636719-.210938 37.199219-17.109376 36.988281-37.746094l-.285156-28.375c-.183594-16.261719-13.5-29.308594-29.765625-29.160156l-32.453125.332031c-7.082031.070312-12.761719 5.867187-12.691406 12.949219l.457031 45.015624c.234375 20.476563 16.886719 36.957032 37.363281 36.984376zm-23.71875-72.125c.773438.765624 1.574219 1.527343 2.402344 2.285156-.824219.488281-1.609375.996094-2.367188 1.523437zm40.417969 51.109374c-4.328125 4.441407-10.253906 6.96875-16.453125 7.011719h-.242188c-12.804687-.015625-23.21875-10.324219-23.367187-23.128906l-.113281-11.414063c1.972656-3.109374 7.03125-9.707031 15.347656-11.71875 7.199219 4.191407 15.351562 6.46875 23.679688 6.609376 2.570312-.003907 5.132812-.25 7.65625-.730469l.171874 16.78125c.078126 6.199219-2.324218 12.175781-6.679687 16.589843zm-9.230469-60.265624c7.503906-.0625 13.972656 5.265624 15.347656 12.644531-14.785156 4.019531-27.664062-4.726563-35.648437-12.445313zm0 0" fill="url(#c)"/><path d="m40.023438 398.109375h-14.460938c-3.863281 0-7 3.132813-7 7s3.136719 7 7 7h14.460938c3.863281 0 7-3.132813 7-7s-3.136719-7-7-7zm0 0" fill="url(#d)"/><path d="m104.914062 398.109375h-14.460937c-3.863281 0-7 3.132813-7 7s3.136719 7 7 7h14.460937c3.867188 0 7-3.132813 7-7s-3.132812-7-7-7zm0 0" fill="url(#e)"/><path d="m74.609375 398.109375h-18.742187c-3.867188 0-7 3.132813-7 7s3.132812 7 7 7h18.746093c3.863281 0 7-3.132813 7-7s-3.136719-7-7-7zm0 0" fill="url(#f)"/><path d="m40.023438 424.222656h-14.460938c-3.863281 0-7 3.132813-7 7 0 3.863282 3.136719 7 7 7h14.460938c3.863281 0 7-3.136718 7-7 0-3.867187-3.136719-7-7-7zm0 0" fill="url(#d)"/><path d="m104.914062 424.222656h-14.460937c-3.863281 0-7 3.132813-7 7 0 3.863282 3.136719 7 7 7h14.460937c3.867188 0 7-3.136718 7-7 0-3.867187-3.132812-7-7-7zm0 0" fill="url(#e)"/><path d="m74.609375 424.222656h-18.742187c-3.867188 0-7 3.132813-7 7 0 3.863282 3.132812 7 7 7h18.746093c3.863281 0 7-3.136718 7-7 0-3.867187-3.136719-7-7-7zm0 0" fill="url(#f)"/><path d="m205.023438 398.109375h-14.460938c-3.863281 0-7 3.132813-7 7s3.136719 7 7 7h14.460938c3.863281 0 7-3.132813 7-7s-3.136719-7-7-7zm0 0" fill="url(#g)"/><path d="m269.914062 398.109375h-14.460937c-3.863281 0-7 3.132813-7 7s3.136719 7 7 7h14.460937c3.867188 0 7-3.132813 7-7s-3.132812-7-7-7zm0 0" fill="url(#h)"/><path d="m239.609375 398.109375h-18.742187c-3.867188 0-7 3.132813-7 7s3.132812 7 7 7h18.742187c3.867187 0 7-3.132813 7-7s-3.132813-7-7-7zm0 0" fill="url(#i)"/><path d="m205.023438 424.222656h-14.460938c-3.863281 0-7 3.132813-7 7 0 3.863282 3.136719 7 7 7h14.460938c3.863281 0 7-3.136718 7-7 0-3.867187-3.136719-7-7-7zm0 0" fill="url(#g)"/><path d="m269.914062 424.222656h-14.460937c-3.863281 0-7 3.132813-7 7 0 3.863282 3.136719 7 7 7h14.460937c3.867188 0 7-3.136718 7-7 0-3.867187-3.132812-7-7-7zm0 0" fill="url(#h)"/><path d="m239.609375 424.222656h-18.742187c-3.867188 0-7 3.132813-7 7 0 3.863282 3.132812 7 7 7h18.742187c3.867187 0 7-3.136718 7-7 0-3.867187-3.132813-7-7-7zm0 0" fill="url(#i)"/><path d="m457.382812 373.535156h-9.367187v-17.171875c0-3.867187-3.132813-7-7-7h-37.117187v-26.472656c0-3.867187-3.136719-7-7-7h-158.574219v-35.804687l18.078125 18.074218c2.730468 2.734375 7.164062 2.734375 9.898437 0 2.734375-2.730468 2.734375-7.164062 0-9.898437l-30-30c-2.734375-2.734375-7.167969-2.734375-9.898437 0l-30 30c-2.734375 2.734375-2.734375 7.167969 0 9.898437 2.730468 2.734375 7.164062 2.734375 9.898437 0l18.023438-18.019531v35.75h-150.757813c-3.867187 0-7 3.132813-7 7v26.472656h-42.820312c-3.867188 0-7 3.132813-7 7v17.171875h-9.363282c-3.867187 0-7 3.132813-7 7v120.226563c0 3.867187 3.132813 7 7 7h120c3.863282 0 7-3.132813 7-7v-120.226563c0-3.867187-3.136718-7-7-7h-9.367187v-17.171875c0-3.867187-3.132813-7-7-7h-30.449219v-19.472656h143.757813v19.472656h-35.578125c-3.867188 0-7 3.132813-7 7v17.171875h-9.363282c-3.867187 0-7 3.132813-7 7v120.226563c0 3.867187 3.132813 7 7 7h120c3.863282 0 7-3.132813 7-7v-120.226563c0-3.867187-3.136718-7-7-7h-9.367187v-17.171875c0-3.867187-3.132813-7-7-7h-37.691406v-19.472656h151.574219v19.472656h-36.152344c-3.867188 0-7 3.132813-7 7v17.171875h-9.363282c-3.867187 0-7 3.132813-7 7v120.226563c0 3.867187 3.132813 7 7 7h120c3.863282 0 7-3.132813 7-7v-120.226563c0-3.867187-3.136718-7-7-7zm-374.171874 120.226563h-33.675782v-26.121094h33.675782zm37.171874 0h-23.171874v-33.121094c0-3.863281-3.136719-7-7-7h-47.675782c-3.867187 0-7 3.136719-7 7v33.121094h-21.152344v-106.226563h106zm-16.367187-120.226563h-73.269531v-10.171875h73.273437v10.171875zm144.195313 120.226563h-33.679688v-26.121094h33.679688zm37.171874 0h-23.171874v-33.121094c0-3.863281-3.136719-7-7-7h-47.679688c-3.863281 0-7 3.136719-7 7v33.121094h-21.148438v-106.226563h106zm-16.367187-120.226563h-73.269531v-10.171875h73.269531zm91.730469-10.171875h73.273437v10.171875h-73.273437zm52.464844 130.402344h-33.679688v-26.121094h33.679688zm37.171874 0h-23.171874v-33.121094c0-3.867187-3.136719-7-7-7h-47.679688c-3.863281 0-7 3.132813-7 7v33.121094h-21.148438v-106.230469h106zm0 0" fill="url(#j)"/><path d="m370.023438 398.109375h-14.460938c-3.863281 0-7 3.132813-7 7s3.136719 7 7 7h14.460938c3.863281 0 7-3.132813 7-7s-3.136719-7-7-7zm0 0" fill="url(#k)"/><path d="m434.914062 398.109375h-14.460937c-3.863281 0-7 3.132813-7 7s3.136719 7 7 7h14.460937c3.867188 0 7-3.132813 7-7s-3.132812-7-7-7zm0 0" fill="url(#l)"/><path d="m404.609375 398.109375h-18.742187c-3.867188 0-7 3.132813-7 7s3.132812 7 7 7h18.742187c3.867187 0 7-3.132813 7-7s-3.132813-7-7-7zm0 0" fill="url(#m)"/><path d="m370.023438 424.222656h-14.460938c-3.863281 0-7 3.132813-7 7 0 3.863282 3.136719 7 7 7h14.460938c3.863281 0 7-3.136718 7-7 0-3.867187-3.136719-7-7-7zm0 0" fill="url(#k)"/><path d="m434.914062 424.222656h-14.460937c-3.863281 0-7 3.132813-7 7 0 3.863282 3.136719 7 7 7h14.460937c3.867188 0 7-3.136718 7-7 0-3.867187-3.132812-7-7-7zm0 0" fill="url(#l)"/><path d="m404.609375 424.222656h-18.742187c-3.867188 0-7 3.132813-7 7 0 3.863282 3.132812 7 7 7h18.742187c3.867187 0 7-3.136718 7-7 0-3.867187-3.132813-7-7-7zm0 0" fill="url(#m)"/></svg>