<svg id="Capa_1" enable-background="new 0 0 512 512" height="512" viewBox="0 0 512 512" width="512" xmlns="http://www.w3.org/2000/svg" xmlns:xlink="http://www.w3.org/1999/xlink"><linearGradient id="lg1"><stop offset="0" stop-color="#8d00db"/><stop offset="1" stop-color="#fc54ff"/></linearGradient><linearGradient id="SVGID_1_" gradientUnits="userSpaceOnUse" x1="74.981" x2="437.02" xlink:href="#lg1" y1="437.019" y2="74.98"/><radialGradient id="SVGID_2_" cx="255.451" cy="159.297" gradientUnits="userSpaceOnUse" r="355.679"><stop offset="0" stop-color="#8d00db"/><stop offset=".2167" stop-color="#ab17e5" stop-opacity=".783"/><stop offset=".5668" stop-color="#d738f3" stop-opacity=".433"/><stop offset=".8397" stop-color="#f24cfc" stop-opacity=".16"/><stop offset="1" stop-color="#fc54ff" stop-opacity="0"/></radialGradient><linearGradient id="lg2"><stop offset="0" stop-color="#fda0ff"/><stop offset=".0066" stop-color="#fda1ff"/><stop offset=".4632" stop-color="#fed4ff"/><stop offset=".8084" stop-color="#fff3ff"/><stop offset="1" stop-color="#fff"/></linearGradient><linearGradient id="SVGID_3_" gradientUnits="userSpaceOnUse" x1="197.864" x2="418.902" xlink:href="#lg2" y1="511.139" y2="290.1"/><linearGradient id="SVGID_4_" gradientUnits="userSpaceOnUse" x1="40.992" x2="431.873" xlink:href="#lg2" y1="449.693" y2="58.813"/><linearGradient id="SVGID_5_" gradientUnits="userSpaceOnUse" x1="124.4" x2="326.578" xlink:href="#lg1" y1="287.121" y2="84.943"/><linearGradient id="SVGID_6_" gradientUnits="userSpaceOnUse" x1="182.183" x2="314.891" xlink:href="#lg1" y1="229.8" y2="97.092"/><radialGradient id="SVGID_7_" cx="256" cy="155.038" gradientUnits="userSpaceOnUse" r="84.369"><stop offset="0" stop-color="#fc54ff" stop-opacity="0"/><stop offset=".19" stop-color="#f851fe" stop-opacity=".095"/><stop offset=".3801" stop-color="#ec48fa" stop-opacity=".19"/><stop offset=".5703" stop-color="#d839f3" stop-opacity=".285"/><stop offset=".7606" stop-color="#bc23ea" stop-opacity=".38"/><stop offset=".9494" stop-color="#9808df" stop-opacity=".475"/><stop offset="1" stop-color="#8d00db" stop-opacity=".5"/></radialGradient><g><circle cx="256" cy="256" fill="url(#SVGID_1_)" r="256"/><circle cx="256" cy="256" fill="url(#SVGID_2_)" r="256"/><path d="m347.887 348.916c-10.21.08-20.419.146-30.629.199-.08 15.349-.179 30.698-.299 46.046 10.16-.08 20.32-.179 30.48-.298 12.617-.153 23.007-10.572 23.167-23.226.161-12.652-10.028-22.815-22.719-22.721z" fill="url(#SVGID_3_)"/><path d="m386.085 155.818c-1.138-71.255-60.173-131.365-130.085-131.468-69.912.102-128.947 60.215-130.085 131.468-.821 63.542 45.971 116.792 107.03 127.863.013 21.857.04 43.715.083 65.572-22.972-.045-45.943-.157-68.915-.337-12.691-.094-22.88 10.067-22.719 22.722s10.55 23.073 23.167 23.226c22.86.269 45.719.437 68.579.503.067 23.057.151 46.114.251 69.171.066 12.731 10.192 23.114 22.608 23.113 12.416 0 22.542-10.381 22.608-23.113.1-23.057.184-46.114.251-69.171 12.7-.037 25.4-.106 38.099-.205 12.618-.103 22.966-10.51 23.085-23.2.119-12.692-10.096-22.908-22.787-22.846-12.762.066-25.524.113-38.286.137.043-21.857.07-43.715.083-65.572 61.062-11.073 107.854-64.32 107.033-127.863z" fill="url(#SVGID_4_)"/><path d="m256 239.6c-46.626-.037-84.569-37.818-84.172-84.236.459-46.407 38.403-84.863 84.172-84.889 45.77.026 83.713 38.481 84.172 84.889.397 46.419-37.547 84.199-84.172 84.236z" fill="url(#SVGID_5_)"/><path d="m271.36 208.855c-46.606-.058-84.445-37.803-84.004-84.282.061-7.417 1.091-14.615 2.944-21.49-11.365 14.476-18.319 32.632-18.472 52.281-.397 46.419 37.547 84.199 84.172 84.236 39.187-.013 72.254-26.76 81.548-62.811-15.338 19.495-39.305 32.084-66.188 32.066z" fill="url(#SVGID_6_)"/><path d="m256 239.6c-46.626-.037-84.569-37.818-84.172-84.236.459-46.407 38.403-84.863 84.172-84.889 45.77.026 83.713 38.481 84.172 84.889.397 46.419-37.547 84.199-84.172 84.236z" fill="url(#SVGID_7_)"/></g></svg>