<svg height="433pt" viewBox="0 0 433 433.98124" width="433pt" xmlns="http://www.w3.org/2000/svg" xmlns:xlink="http://www.w3.org/1999/xlink"><linearGradient id="a" gradientUnits="userSpaceOnUse" x1="217.374326" x2="217.374326" y1="-23.115197" y2="486.158803"><stop offset="0" stop-color="#00efd1"/><stop offset="1" stop-color="#00acea"/></linearGradient><path d="m217.375 0c-87.722656 0-166.804688 52.84375-200.375 133.886719s-15.015625 174.328125 47.015625 236.359375c54.761719 54.914062 134.683594 76.410156 209.609375 56.371094 74.921875-20.039063 133.441406-78.558594 153.480469-153.484376 20.039062-74.921874-1.453125-154.84375-56.371094-209.609374-40.585937-40.804688-95.808594-63.679688-153.359375-63.523438zm-113.09375 50.949219 41.257812 46.371093c4.75 5.332032 11.199219 8.855469 18.253907 9.976563 6.878906 1.121094 12.074219 6.84375 12.527343 13.800781l.054688.921875c.261719 4.300781-1.355469 8.507813-4.433594 11.523438-3.078125 3.019531-7.3125 4.550781-11.609375 4.207031l-13.808593-1.109375c-15.4375-1.207031-29.390626 9.175781-32.667969 24.308594l-6.789063 31.667969c-2.859375 13.167968 3.183594 26.664062 14.910156 33.300781l34.257813 19.515625c3.121094 1.773437 5.953125 4.015625 8.402344 6.644531 23.65625 25.398437 40.660156 44.792969 45.488281 51.878906 2.820312 4.132813 6.933594 7.207031 11.695312 8.75l9.980469 3.214844c2.28125.730469 3.972657 2.65625 4.40625 5.011719.433594 2.355468-.464843 4.753906-2.332031 6.25-14.699219 11.71875-34.144531 26.832031-44.425781 34.800781-8.386719 6.527344-13.769531 16.179687-14.917969 26.746094l-2.546875 23.867187c-13.636719-3.167968-26.90625-7.761718-39.585937-13.710937l-4.113282-12.914063c-.464844-1.453125-1.15625-2.824218-2.058594-4.054687l-46.082031-63.21875c-3.203125-4.394531-4.363281-9.957031-3.179687-15.265625 8.582031-38.457032 8.582031-39.679688 8.582031-40.972656 0-2.792969 0-3.300782-18.351563-34.839844-9.058593-15.574219-19.160156-32.699219-24.378906-41.519532-1.199218-2.027343-2.007812-4.261718-2.382812-6.589843l-7.035156-43.242188c15.207031-34.492187 39.761718-64.046875 70.882812-85.320312zm-87.789062 165.9375c-.007813-16.339844 1.984374-32.617188 5.925781-48.472657l2.222656 13.671876c.691406 4.292968 2.1875 8.414062 4.398437 12.15625 21.242188 35.933593 36.460938 62.175781 40.210938 69.320312-.65625 3.351562-2.539062 12.335938-7.902344 36.386719-2.183594 9.800781-.046875 20.0625 5.867188 28.175781l42.484375 58.28125c-58.019531-36.84375-93.179688-100.789062-93.207031-169.519531zm200.882812 200.882812c-9.914062 0-19.816406-.730469-29.621094-2.1875l2.679688-25.160156c.679687-6.238281 3.859375-11.9375 8.8125-15.792969 12.597656-9.761718 30.5625-23.75 44.597656-34.9375 6.480469-5.167968 9.59375-13.480468 8.101562-21.636718-1.488281-8.152344-7.34375-14.828126-15.234374-17.367188l-9.984376-3.214844c-1.371093-.445312-2.558593-1.332031-3.375-2.523437-7.300781-10.726563-32.582031-38.300781-47.003906-53.78125-3.550781-3.816407-7.660156-7.066407-12.1875-9.640625l-34.261718-19.515625c-5.648438-3.199219-8.558594-9.703125-7.183594-16.046875l6.789062-31.667969c1.582032-7.289063 8.300782-12.285156 15.738282-11.710937l13.808593 1.109374c8.914063.71875 17.707031-2.464843 24.09375-8.730468 6.386719-6.261719 9.746094-14.988282 9.203125-23.917969l-.054687-.921875c-.945313-14.433594-11.726563-26.304688-26-28.632812-3.398438-.539063-6.507813-2.238282-8.800781-4.804688l-39.457032-44.351562c56.328125-32.121094 124.714844-35.023438 183.566406-7.800782l-11.554687 22.632813c-.359375.703125-.882813 1.3125-1.523437 1.773437l-20.828126 15.070313c-7.5 5.421875-10.5625 15.117187-7.542968 23.867187 3.019531 8.746094 11.410156 14.488282 20.660156 14.132813l35.488281-1.367188c2.730469-.101562 5.230469 1.511719 6.265625 4.035157l1.039063 2.535156c.789062 1.925781.605469 4.109375-.488281 5.878906s-2.96875 2.910156-5.042969 3.0625l-52.144531 3.914062c-9.945313.785157-18.199219 7.988282-20.324219 17.734376l-11.929688 55.84375c-2.496093 11.953124 3.082031 24.136718 13.761719 30.054687l49.925781 27.363281c7.964844 4.363282 17.5625 4.542969 25.683594.484375l15.253906-7.625c3.097657-1.550781 6.722657-1.644531 9.898438-.257812s5.570312 4.113281 6.535156 7.4375l8.097656 27.800781c1.101563 3.808594 3.015625 7.335938 5.609375 10.335938l19.914063 22.980468c-36.5625 59.351563-101.273438 95.511719-170.980469 95.546875zm179.300781-110.375-16.125-18.609375c-1.089843-1.265625-1.894531-2.75-2.359375-4.351562l-8.09375-27.800782c-2.292968-7.882812-7.96875-14.339843-15.492187-17.625-7.523438-3.289062-16.117188-3.066406-23.460938.605469l-15.253906 7.625c-3.425781 1.714844-7.476563 1.640625-10.835937-.199219l-49.925782-27.363281c-4.507812-2.496093-6.863281-7.636719-5.808594-12.683593l11.933594-55.84375c.613282-2.8125 2.996094-4.894532 5.871094-5.121094l52.144531-3.914063c7.179688-.535156 13.667969-4.476562 17.457031-10.601562 3.785157-6.125 4.414063-13.691407 1.6875-20.355469l-1.039062-2.535156c-3.597656-8.734375-12.25-14.304688-21.691406-13.964844l-35.492188 1.363281c-2.199218.085938-4.195312-1.28125-4.914062-3.363281s.011718-4.390625 1.792968-5.679688l20.828126-15.070312c2.691406-1.949219 4.882812-4.503906 6.398437-7.464844l11.542969-22.597656c93.667968 52.621094 129.296875 169.664062 80.835937 265.550781zm0 0" fill="url(#a)"/></svg>