<?xml version="1.0" encoding="iso-8859-1"?>
<!-- Generator: Adobe Illustrator 19.0.0, SVG Export Plug-In . SVG Version: 6.00 Build 0)  -->
<svg version="1.1" id="Capa_1" xmlns="http://www.w3.org/2000/svg" xmlns:xlink="http://www.w3.org/1999/xlink" x="0px" y="0px"
	 viewBox="0 0 466.158 466.158" style="enable-background:new 0 0 466.158 466.158;" xml:space="preserve">
<linearGradient id="SVGID_1_" gradientUnits="userSpaceOnUse" x1="233.0791" y1="483.157" x2="233.0791" y2="-21.323" gradientTransform="matrix(1 0 0 -1 0 468.314)">
	<stop  offset="0" style="stop-color:#00EFD1"/>
	<stop  offset="1" style="stop-color:#00ACEA"/>
</linearGradient>
<path style="fill:url(#SVGID_1_);" d="M413.922,215.157h-23.843v-22.986c-0.051-16.577-13.494-29.994-30.071-30.014h-25.929V109.6
	c-0.178-16.728-13.686-30.249-30.414-30.443h-60.586V10c0-5.523-4.477-10-10-10c-5.523,0-10,4.477-10,10v69.157h-68.843
	c-16.542,0-30.157,13.9-30.157,30.443v132.557H52.236c-16.542,0-30.157,13.129-30.157,29.671v184.486
	c0.086,5.522,4.632,9.929,10.155,9.843c0.001,0,0.002,0,0.002,0h401.686c5.522,0.087,10.07-4.318,10.157-9.841
	c0-0.001,0-0.002,0-0.002V245.6C444.079,229.057,430.464,215.157,413.922,215.157L413.922,215.157z M154.236,99.157h149.429
	c5.686,0.181,10.249,4.756,10.414,10.443v336.557h-170V109.6C144.124,103.962,148.601,99.359,154.236,99.157L154.236,99.157z
	 M42.079,271.828c0.108-5.451,4.614-9.781,10.065-9.673c0.031,0.001,0.061,0.001,0.092,0.002h71.843v184h-82V271.828z
	 M424.079,446.157h-90v-43h49.414c5.523,0,10-4.477,10-10s-4.477-10-10-10h-49.414v-29h49.414c5.523,0,10-4.477,10-10
	s-4.477-10-10-10h-49.414v-28h49.414c5.523,0,10-4.477,10-10s-4.477-10-10-10h-49.414v-104h25.929
	c5.537,0.007,10.033,4.477,10.071,10.014V225.6c0,5.523,4.406,9.557,9.929,9.557h33.914c5.635,0.202,10.112,4.805,10.157,10.443
	L424.079,446.157z"/>
<g>
	
		<linearGradient id="SVGID_2_" gradientUnits="userSpaceOnUse" x1="84.2071" y1="483.157" x2="84.2071" y2="-21.323" gradientTransform="matrix(1 0 0 -1 0 468.314)">
		<stop  offset="0" style="stop-color:#00EFD1"/>
		<stop  offset="1" style="stop-color:#00ACEA"/>
	</linearGradient>
	<path style="fill:url(#SVGID_2_);" d="M70.607,309.157h27.2c5.523,0,10-4.477,10-10s-4.477-10-10-10h-27.2c-5.523,0-10,4.477-10,10
		S65.084,309.157,70.607,309.157z"/>
	
		<linearGradient id="SVGID_3_" gradientUnits="userSpaceOnUse" x1="84.2081" y1="483.157" x2="84.2081" y2="-21.323" gradientTransform="matrix(1 0 0 -1 0 468.314)">
		<stop  offset="0" style="stop-color:#00EFD1"/>
		<stop  offset="1" style="stop-color:#00ACEA"/>
	</linearGradient>
	<path style="fill:url(#SVGID_3_);" d="M97.808,337.157h-27.2c-5.523,0-10,4.477-10,10s4.477,10,10,10h27.2c5.523,0,10-4.477,10-10
		S103.331,337.157,97.808,337.157z"/>
	
		<linearGradient id="SVGID_4_" gradientUnits="userSpaceOnUse" x1="84.2081" y1="483.157" x2="84.2081" y2="-21.323" gradientTransform="matrix(1 0 0 -1 0 468.314)">
		<stop  offset="0" style="stop-color:#00EFD1"/>
		<stop  offset="1" style="stop-color:#00ACEA"/>
	</linearGradient>
	<path style="fill:url(#SVGID_4_);" d="M97.808,386.157h-27.2c-5.523,0-10,4.477-10,10s4.477,10,10,10h27.2c5.523,0,10-4.477,10-10
		S103.331,386.157,97.808,386.157z"/>
</g>
<g>
	
		<linearGradient id="SVGID_5_" gradientUnits="userSpaceOnUse" x1="181.0791" y1="483.157" x2="181.0791" y2="-21.323" gradientTransform="matrix(1 0 0 -1 0 468.314)">
		<stop  offset="0" style="stop-color:#00EFD1"/>
		<stop  offset="1" style="stop-color:#00ACEA"/>
	</linearGradient>
	<path style="fill:url(#SVGID_5_);" d="M181.079,197.714c5.523,0,10-4.477,10-10v-31.086c0-5.523-4.477-10-10-10s-10,4.477-10,10
		v31.086C171.079,193.237,175.556,197.714,181.079,197.714z"/>
	
		<linearGradient id="SVGID_6_" gradientUnits="userSpaceOnUse" x1="230.0791" y1="483.157" x2="230.0791" y2="-21.323" gradientTransform="matrix(1 0 0 -1 0 468.314)">
		<stop  offset="0" style="stop-color:#00EFD1"/>
		<stop  offset="1" style="stop-color:#00ACEA"/>
	</linearGradient>
	<path style="fill:url(#SVGID_6_);" d="M230.079,197.714c5.523,0,10-4.477,10-10v-31.086c0-5.523-4.477-10-10-10
		c-5.523,0-10,4.477-10,10v31.086C220.079,193.237,224.556,197.714,230.079,197.714z"/>
	
		<linearGradient id="SVGID_7_" gradientUnits="userSpaceOnUse" x1="278.0791" y1="483.157" x2="278.0791" y2="-21.323" gradientTransform="matrix(1 0 0 -1 0 468.314)">
		<stop  offset="0" style="stop-color:#00EFD1"/>
		<stop  offset="1" style="stop-color:#00ACEA"/>
	</linearGradient>
	<path style="fill:url(#SVGID_7_);" d="M278.079,197.714c5.523,0,10-4.477,10-10v-31.086c0-5.523-4.477-10-10-10s-10,4.477-10,10
		v31.086C268.079,193.237,272.556,197.714,278.079,197.714z"/>
	
		<linearGradient id="SVGID_8_" gradientUnits="userSpaceOnUse" x1="181.0791" y1="483.157" x2="181.0791" y2="-21.323" gradientTransform="matrix(1 0 0 -1 0 468.314)">
		<stop  offset="0" style="stop-color:#00EFD1"/>
		<stop  offset="1" style="stop-color:#00ACEA"/>
	</linearGradient>
	<path style="fill:url(#SVGID_8_);" d="M181.079,294.857c5.523,0,10-4.477,10-10v-31.086c0-5.523-4.477-10-10-10s-10,4.477-10,10
		v31.086C171.079,290.38,175.556,294.857,181.079,294.857z"/>
	
		<linearGradient id="SVGID_9_" gradientUnits="userSpaceOnUse" x1="230.0791" y1="483.157" x2="230.0791" y2="-21.323" gradientTransform="matrix(1 0 0 -1 0 468.314)">
		<stop  offset="0" style="stop-color:#00EFD1"/>
		<stop  offset="1" style="stop-color:#00ACEA"/>
	</linearGradient>
	<path style="fill:url(#SVGID_9_);" d="M230.079,294.857c5.523,0,10-4.477,10-10v-31.086c0-5.523-4.477-10-10-10
		c-5.523,0-10,4.477-10,10v31.086C220.079,290.38,224.556,294.857,230.079,294.857z"/>
	
		<linearGradient id="SVGID_10_" gradientUnits="userSpaceOnUse" x1="278.0791" y1="483.157" x2="278.0791" y2="-21.323" gradientTransform="matrix(1 0 0 -1 0 468.314)">
		<stop  offset="0" style="stop-color:#00EFD1"/>
		<stop  offset="1" style="stop-color:#00ACEA"/>
	</linearGradient>
	<path style="fill:url(#SVGID_10_);" d="M278.079,294.857c5.523,0,10-4.477,10-10v-31.086c0-5.523-4.477-10-10-10s-10,4.477-10,10
		v31.086C268.079,290.38,272.556,294.857,278.079,294.857z"/>
	
		<linearGradient id="SVGID_11_" gradientUnits="userSpaceOnUse" x1="181.0791" y1="483.157" x2="181.0791" y2="-21.323" gradientTransform="matrix(1 0 0 -1 0 468.314)">
		<stop  offset="0" style="stop-color:#00EFD1"/>
		<stop  offset="1" style="stop-color:#00ACEA"/>
	</linearGradient>
	<path style="fill:url(#SVGID_11_);" d="M181.079,392c5.523,0,10-4.477,10-10v-31.086c0-5.523-4.477-10-10-10s-10,4.477-10,10V382
		C171.079,387.523,175.556,392,181.079,392z"/>
	
		<linearGradient id="SVGID_12_" gradientUnits="userSpaceOnUse" x1="230.0791" y1="483.157" x2="230.0791" y2="-21.323" gradientTransform="matrix(1 0 0 -1 0 468.314)">
		<stop  offset="0" style="stop-color:#00EFD1"/>
		<stop  offset="1" style="stop-color:#00ACEA"/>
	</linearGradient>
	<path style="fill:url(#SVGID_12_);" d="M230.079,392c5.523,0,10-4.477,10-10v-31.086c0-5.523-4.477-10-10-10
		c-5.523,0-10,4.477-10,10V382C220.079,387.523,224.556,392,230.079,392z"/>
	
		<linearGradient id="SVGID_13_" gradientUnits="userSpaceOnUse" x1="278.0791" y1="483.157" x2="278.0791" y2="-21.323" gradientTransform="matrix(1 0 0 -1 0 468.314)">
		<stop  offset="0" style="stop-color:#00EFD1"/>
		<stop  offset="1" style="stop-color:#00ACEA"/>
	</linearGradient>
	<path style="fill:url(#SVGID_13_);" d="M278.079,392c5.523,0,10-4.477,10-10v-31.086c0-5.523-4.477-10-10-10s-10,4.477-10,10V382
		C268.079,387.523,272.556,392,278.079,392z"/>
</g>
<g>
</g>
<g>
</g>
<g>
</g>
<g>
</g>
<g>
</g>
<g>
</g>
<g>
</g>
<g>
</g>
<g>
</g>
<g>
</g>
<g>
</g>
<g>
</g>
<g>
</g>
<g>
</g>
<g>
</g>
</svg>
