<svg id="Capa_1" enable-background="new 0 0 512 512" height="512" viewBox="0 0 512 512" width="512" xmlns="http://www.w3.org/2000/svg" xmlns:xlink="http://www.w3.org/1999/xlink"><linearGradient id="SVGID_1_" gradientUnits="userSpaceOnUse" x1="35.431" x2="486.57" y1="476.569" y2="25.43"><stop offset="0" stop-color="#560dff"/><stop offset="1" stop-color="#73ecff"/></linearGradient><radialGradient id="SVGID_2_" cx="257.013" cy="256" gradientUnits="userSpaceOnUse" r="256"><stop offset="0" stop-color="#663deb"/><stop offset=".12" stop-color="#6344ea" stop-opacity=".874"/><stop offset=".2989" stop-color="#5a59e8" stop-opacity=".687"/><stop offset=".5146" stop-color="#4b7ae4" stop-opacity=".46"/><stop offset=".7567" stop-color="#38a7e0" stop-opacity=".207"/><stop offset=".9537" stop-color="#25d2db" stop-opacity="0"/></radialGradient><linearGradient id="lg1"><stop offset="0" stop-color="#18ccc0"/><stop offset=".0961" stop-color="#3ad4c9"/><stop offset=".2774" stop-color="#76e1da"/><stop offset=".4523" stop-color="#a7ece7"/><stop offset=".6164" stop-color="#cdf4f1"/><stop offset=".7671" stop-color="#e8faf9"/><stop offset=".8996" stop-color="#f9fefd"/><stop offset="1" stop-color="#fff"/></linearGradient><linearGradient id="SVGID_3_" gradientUnits="userSpaceOnUse" x1="85.237" x2="598.677" xlink:href="#lg1" y1="426.763" y2="-86.677"/><linearGradient id="SVGID_4_" gradientUnits="userSpaceOnUse" x1="-90.675" x2="490.686" xlink:href="#lg1" y1="602.675" y2="21.314"/><linearGradient id="SVGID_5_" gradientUnits="userSpaceOnUse" x1="-150.111" x2="421.994" y1="662.111" y2="90.005"><stop offset="0" stop-color="#a3ffe0"/><stop offset=".0291" stop-color="#a7ffe1"/><stop offset=".3184" stop-color="#cdffee"/><stop offset=".5859" stop-color="#e9fff7"/><stop offset=".8215" stop-color="#f9fffd"/><stop offset="1" stop-color="#fff"/></linearGradient><linearGradient id="lg2"><stop offset="0" stop-color="#3ca1ff"/><stop offset=".0788" stop-color="#3eaafc"/><stop offset=".5895" stop-color="#49e4ec"/><stop offset=".8352" stop-color="#4dfae6"/><stop offset=".8878" stop-color="#65fbe4"/><stop offset=".9985" stop-color="#a2ffe0"/><stop offset="1" stop-color="#a3ffe0"/></linearGradient><linearGradient id="SVGID_6_" gradientUnits="userSpaceOnUse" x1="96.579" x2="402.041" xlink:href="#lg2" y1="415.421" y2="109.959"/><linearGradient id="SVGID_7_" gradientUnits="userSpaceOnUse" x1="143.595" x2="383.808" y1="369.227" y2="129.013"><stop offset="0" stop-color="#3ca1ff"/><stop offset=".2238" stop-color="#4eb1fa"/><stop offset=".6704" stop-color="#7ddcec"/><stop offset="1" stop-color="#a3ffe0"/></linearGradient><linearGradient id="SVGID_8_" gradientUnits="userSpaceOnUse" x1="85.622" x2="315.796" y1="426.378" y2="196.204"><stop offset="0" stop-color="#00b8ae"/><stop offset=".1231" stop-color="#3ac8c1"/><stop offset=".2627" stop-color="#75d9d3"/><stop offset=".3976" stop-color="#a7e6e3"/><stop offset=".5241" stop-color="#cdf1ef"/><stop offset=".6403" stop-color="#e8f9f8"/><stop offset=".7425" stop-color="#f9fdfd"/><stop offset=".8198" stop-color="#fff"/></linearGradient><linearGradient id="SVGID_9_" gradientUnits="userSpaceOnUse" x1="167.241" x2="332.082" xlink:href="#lg2" y1="351.917" y2="187.076"/><linearGradient id="SVGID_10_" gradientUnits="userSpaceOnUse" x1="216.51" x2="350.222" xlink:href="#lg2" y1="308.926" y2="175.214"/><g><circle cx="256" cy="256" fill="url(#SVGID_1_)" r="256"/><circle cx="256" cy="256" fill="url(#SVGID_2_)" r="256"/><path d="m413.694 135.265c-12.352-12.277-24.682-24.606-36.959-36.959-27.742-21.79-60.582-36.779-96.093-41.553-16.429-.103-32.857-.103-49.286 0-35.511 4.776-68.351 19.765-96.093 41.553-12.277 12.353-24.606 24.682-36.959 36.959-21.788 27.742-36.779 60.582-41.553 96.093-.102 16.429-.102 32.857 0 49.286 4.775 35.511 19.765 68.35 41.553 96.093 12.353 12.277 24.682 24.606 36.959 36.959 27.742 21.79 60.582 36.779 96.093 41.553 16.429.102 32.857.102 49.286 0 35.511-4.775 68.35-19.763 96.093-41.553 12.277-12.352 24.606-24.682 36.959-36.959 21.789-27.741 36.779-60.581 41.553-96.093.102-16.429.102-32.857 0-49.286-4.774-35.512-19.764-68.352-41.553-96.093z" fill="url(#SVGID_3_)"/><path d="m455.266 231.459c-.82-6.116-5.49-11.137-11.624-12.68-13.575-3.411-27.147-6.841-40.714-10.278-2.534-7.488-5.639-14.736-9.266-21.698 7.046-11.745 14.034-23.441 20.948-35.076 3.125-5.257 2.63-12.028-1.329-17.026-5.205-6.573-10.86-12.93-16.955-19.025-6.095-6.094-12.453-11.75-19.025-16.955-4.999-3.959-11.77-4.453-17.026-1.329-11.636 6.914-23.331 13.902-35.076 20.948-6.962-3.628-14.211-6.732-21.698-9.266-3.438-13.567-6.867-27.14-10.278-40.714-1.543-6.133-6.565-10.804-12.68-11.624-8.047-1.08-16.235-1.636-24.543-1.636s-16.496.555-24.541 1.634c-6.115.819-11.137 5.49-12.68 11.624-3.411 13.575-6.84 27.147-10.278 40.714-7.486 2.534-14.736 5.638-21.698 9.266-11.745-7.046-23.441-14.035-35.076-20.948-5.257-3.125-12.028-2.63-17.026 1.329-6.572 5.205-12.93 10.861-19.025 16.955-6.095 6.096-11.75 12.453-16.955 19.025-3.959 4.998-4.453 11.77-1.329 17.026 6.914 11.635 13.902 23.331 20.948 35.076-3.628 6.964-6.732 14.211-9.266 21.698-13.567 3.438-27.139 6.867-40.714 10.278-6.133 1.543-10.804 6.564-11.624 12.68-1.08 8.048-1.636 16.234-1.636 24.543 0 8.307.556 16.497 1.634 24.541.82 6.115 5.491 11.137 11.624 12.68 13.575 3.411 27.147 6.841 40.714 10.278 2.534 7.487 5.638 14.737 9.266 21.698-7.046 11.745-14.034 23.44-20.948 35.076-3.125 5.256-2.63 12.027 1.329 17.026 5.205 6.573 10.86 12.929 16.955 19.026 6.095 6.095 12.453 11.748 19.025 16.955 4.999 3.957 11.77 4.452 17.026 1.329 11.636-6.914 23.331-13.902 35.076-20.948 6.962 3.627 14.211 6.732 21.698 9.266 3.438 13.567 6.867 27.14 10.278 40.714 1.543 6.134 6.565 10.803 12.68 11.624 8.046 1.079 16.233 1.633 24.541 1.634 8.308-.001 16.496-.557 24.541-1.634 6.115-.821 11.137-5.49 12.68-11.624 3.411-13.574 6.84-27.146 10.278-40.714 7.486-2.533 14.736-5.639 21.698-9.266 11.745 7.046 23.441 14.034 35.076 20.948 5.257 3.125 12.027 2.629 17.026-1.329 6.572-5.205 12.93-10.86 19.025-16.955 6.095-6.096 11.75-12.453 16.955-19.026 3.959-4.998 4.453-11.769 1.329-17.026-6.914-11.636-13.902-23.331-20.948-35.076 3.628-6.963 6.732-14.213 9.266-21.698 13.567-3.438 27.139-6.867 40.714-10.278 6.133-1.542 10.804-6.566 11.624-12.68 1.078-8.044 1.635-16.233 1.634-24.541.004-8.308-.553-16.496-1.63-24.541z" fill="url(#SVGID_4_)"/><path d="m256 101.225c-83.715.257-154.519 71.059-154.775 154.775.256 83.714 71.06 154.519 154.775 154.775 83.715-.255 154.519-71.062 154.775-154.775-.256-83.715-71.06-154.518-154.775-154.775z" fill="url(#SVGID_5_)"/><path d="m256 131.975c-67.589.131-123.893 56.435-124.025 124.025.132 67.589 56.436 123.893 124.025 124.025 67.589-.133 123.893-56.434 124.025-124.025-.132-67.59-56.436-123.893-124.025-124.025z" fill="url(#SVGID_6_)"/><path d="m271.287 353.361c-67.887.018-124.047-56.052-123.89-123.821.059-16.927 3.618-33.073 9.954-47.828-15.851 20.811-25.381 46.493-25.376 74.288.132 67.589 56.436 123.893 124.025 124.025 50.861-.005 95.056-31.986 114.198-76.324-22.845 29.845-58.749 49.591-98.911 49.66z" fill="url(#SVGID_7_)"/><path d="m256 162.725c-51.128.056-93.219 42.147-93.275 93.275.056 51.128 42.147 93.219 93.275 93.275 51.128-.057 93.219-42.146 93.275-93.275-.056-51.129-42.147-93.219-93.275-93.275z" fill="url(#SVGID_8_)"/><path d="m292.018 249.304c-9.831-15.886-19.675-31.792-29.491-47.692-3.002-4.862-10.053-4.862-13.054 0-9.816 15.9-19.66 31.805-29.491 47.692-4.036 6.484-6.372 14.13-6.365 22.323.028 23.376 19.034 42.404 42.384 42.407 23.349-.005 42.356-19.033 42.384-42.407.005-8.192-2.331-15.837-6.367-22.323z" fill="url(#SVGID_9_)"/><path d="m271.368 283.28c-23.394.009-42.389-18.986-42.379-42.379.001-2.45.235-4.846.638-7.183-3.215 5.197-6.431 10.393-9.645 15.586-4.036 6.484-6.372 14.13-6.365 22.323.028 23.376 19.034 42.404 42.384 42.407 22.695-.005 41.28-17.98 42.332-40.45-7.333 6.048-16.727 9.689-26.965 9.696z" fill="url(#SVGID_10_)"/></g></svg>