<svg id="Layer_1" height="512" viewBox="0 0 512 512" width="512" xmlns="http://www.w3.org/2000/svg" xmlns:xlink="http://www.w3.org/1999/xlink" data-name="Layer 1"><linearGradient id="linear-gradient" gradientUnits="userSpaceOnUse" x1="238.374" x2="238.374" y1="22" y2="478.745"><stop offset="0" stop-color="#00efd1"/><stop offset="1" stop-color="#00acea"/></linearGradient><linearGradient id="linear-gradient-2" x1="373.145" x2="373.145" xlink:href="#linear-gradient" y1="22" y2="478.745"/><linearGradient id="linear-gradient-3" x1="103.59" x2="103.59" xlink:href="#linear-gradient" y1="22" y2="478.745"/><linearGradient id="linear-gradient-4" x1="256.252" x2="256.252" xlink:href="#linear-gradient" y1="22" y2="478.745"/><linearGradient id="linear-gradient-5" x1="385.925" x2="385.925" xlink:href="#linear-gradient" y1="22" y2="478.745"/><path d="m238.352 193h.026v-5.874l.047 6.064a53.6 53.6 0 0 0 -.071-107.19h-.024a53.5 53.5 0 1 0 .022 107zm-29.285-82.654a41.331 41.331 0 0 1 29.311-12.346h.018a41.5 41.5 0 1 1 .023 83h-.044s-.016.126-.023.126a41.485 41.485 0 0 1 -29.285-70.78z" fill="url(#linear-gradient)"/><path d="m373.119 156.815h.368.382a53.41 53.41 0 0 0 -.745-106.815h-.024a53.408 53.408 0 0 0 .02 106.815zm-29.281-82.69a41.113 41.113 0 0 1 29.309-12.125h.019a41.376 41.376 0 0 1 41.4 41.534c.165 22.652-18.13 41.466-40.79 41.466h-.65a41.552 41.552 0 0 1 -29.285-70.875z" fill="url(#linear-gradient-2)"/><path d="m103.577 157h.03c29.393 0 52.393-23.6 53.393-53.5v-.158a53.357 53.357 0 0 0 -53.421-53.342h-.024a53.5 53.5 0 0 0 .022 107zm-29.284-82.875a41.118 41.118 0 0 1 29.307-12.125h.011a41.375 41.375 0 0 1 41.405 41.436c-.462 23.264-18.643 41.564-41.416 41.564h-.027a41.552 41.552 0 0 1 -29.28-70.875z" fill="url(#linear-gradient-3)"/><path d="m462 274.64v-25.483c0-41.777-34.359-76.157-76.146-76.157h-24.191c-31.312 0-59.523 19.593-71.106 48.439a75.346 75.346 0 0 0 -39.974-11.439h-24.306a75.262 75.262 0 0 0 -39.9 11.372 76.559 76.559 0 0 0 -70.789-48.372h-24.081a75.774 75.774 0 0 0 -75.507 75.917v75.8c0 3.313 2.431 6.287 5.744 6.287h129.256v30.648c0 3.314 2.2 6.352 5.514 6.352h123.871c6.788 53 52.41 94.2 107.5 94.2 59.756 0 108.619-48.591 108.619-108.209a109.069 109.069 0 0 0 -34.504-79.355zm-100.337-89.64h24.181c35.156 0 64.156 28.977 64.156 64.147v15.868a109.9 109.9 0 0 0 -61.867-19.231 108.334 108.334 0 0 0 -64.222 21 75.974 75.974 0 0 0 -23.276-37.784c8.973-25.991 33.559-44 61.028-44zm-333.663 134v-70.073a63.777 63.777 0 0 1 63.517-63.927h24.059a64.9 64.9 0 0 1 61 43.934 75.546 75.546 0 0 0 -25.576 56.92v33.146zm135 37v-70.137c0-35.125 28.165-63.863 63.288-63.863h24.285a63.784 63.784 0 0 1 62.8 53.366 108.223 108.223 0 0 0 -33.861 78.664c0 .583.012.97.022 1.97zm224.885 94.026c-53.14 0-96.371-43.12-96.371-96.121s43.231-96.121 96.371-96.121 96.371 43.12 96.371 96.121-43.232 96.121-96.371 96.121z" fill="url(#linear-gradient-4)"/><path d="m434.654 289h-85.944a17.409 17.409 0 0 0 -17.71 17.5v95.7c0 .068-.1.134-.1.2 0 .1-.052.395-.052.491a18.063 18.063 0 0 0 17.863 18.109h79.589c3.313 0 5.7-3.091 5.7-6.4v-17.6h.654a6.5 6.5 0 0 0 6.346-6.227v-96.189c0-3.313-3.032-5.584-6.346-5.584zm-91.654 17.5a5.406 5.406 0 0 1 5.71-5.5h7.29v84h-7.289a17.091 17.091 0 0 0 -5.711.776zm79 102.5h-73.289a6 6 0 0 1 0-12h73.289zm7-24h-61v-84h61z" fill="url(#linear-gradient-5)"/></svg>