<svg id="Capa_1" enable-background="new 0 0 512.001 512.001" height="512" viewBox="0 0 512.001 512.001" width="512" xmlns="http://www.w3.org/2000/svg" xmlns:xlink="http://www.w3.org/1999/xlink"><linearGradient id="SVGID_1_" gradientUnits="userSpaceOnUse" x1="74.984" x2="437.023" y1="437.023" y2="74.984"><stop offset="0" stop-color="#008a4c"/><stop offset="1" stop-color="#d3ff33"/></linearGradient><linearGradient id="lg1"><stop offset="0" stop-color="#008a4c" stop-opacity=".8"/><stop offset=".0569" stop-color="#2ca247" stop-opacity=".755"/><stop offset=".1184" stop-color="#53b842" stop-opacity=".705"/><stop offset=".1862" stop-color="#75cb3e" stop-opacity=".651"/><stop offset=".2598" stop-color="#93db3b" stop-opacity=".592"/><stop offset=".3411" stop-color="#aae838" stop-opacity=".527"/><stop offset=".4334" stop-color="#bdf336" stop-opacity=".453"/><stop offset=".5432" stop-color="#c9fa34" stop-opacity=".366"/><stop offset=".6875" stop-color="#d1fe33" stop-opacity=".25"/><stop offset="1" stop-color="#d3ff33" stop-opacity="0"/></linearGradient><radialGradient id="SVGID_2_" cx="-31266.383" cy="-31857.565" gradientTransform="matrix(1 0 0 1.253 31456.449 40220.46100000001)" gradientUnits="userSpaceOnUse" r="333.524" xlink:href="#lg1"/><radialGradient id="SVGID_3_" cx="-31266.383" cy="-31857.565" gradientTransform="matrix(-1 0 0 1.253 -30944.449 40220.46100000001)" gradientUnits="userSpaceOnUse" r="333.524" xlink:href="#lg1"/><linearGradient id="lg2"><stop offset="0" stop-color="#00753b"/><stop offset=".1212" stop-color="#12813a"/><stop offset=".3647" stop-color="#41a038"/><stop offset=".7046" stop-color="#8cd136"/><stop offset="1" stop-color="#d3ff33"/></linearGradient><linearGradient id="SVGID_4_" gradientUnits="userSpaceOnUse" x1="93.308" x2="224.248" xlink:href="#lg2" y1="172.51" y2="41.57"/><linearGradient id="SVGID_5_" gradientUnits="userSpaceOnUse" x1="70.107" x2="213.499" xlink:href="#lg2" y1="277.216" y2="133.825"/><linearGradient id="SVGID_6_" gradientUnits="userSpaceOnUse" x1="150.315" x2="359.695" xlink:href="#lg2" y1="186.823" y2="-22.557"/><linearGradient id="lg3"><stop offset="0" stop-color="#5ccd38"/><stop offset=".1743" stop-color="#6ed341"/><stop offset=".5245" stop-color="#9de45a"/><stop offset="1" stop-color="#e6fe7f"/></linearGradient><linearGradient id="SVGID_7_" gradientUnits="userSpaceOnUse" x1="21.563" x2="285.176" xlink:href="#lg3" y1="477.691" y2="214.078"/><linearGradient id="SVGID_8_" gradientUnits="userSpaceOnUse" x1="55.483" x2="293.834" xlink:href="#lg3" y1="413.453" y2="175.102"/><linearGradient id="lg4"><stop offset="0" stop-color="#d3ff33" stop-opacity="0"/><stop offset=".2804" stop-color="#d1fe33" stop-opacity=".224"/><stop offset=".4255" stop-color="#c9f934" stop-opacity=".34"/><stop offset=".5395" stop-color="#bcf236" stop-opacity=".432"/><stop offset=".6375" stop-color="#a9e738" stop-opacity=".51"/><stop offset=".7251" stop-color="#90da3b" stop-opacity=".58"/><stop offset=".8053" stop-color="#71c93f" stop-opacity=".644"/><stop offset=".8798" stop-color="#4db543" stop-opacity=".704"/><stop offset=".948" stop-color="#259e48" stop-opacity=".758"/><stop offset="1" stop-color="#008a4c" stop-opacity=".8"/></linearGradient><linearGradient id="SVGID_9_" gradientUnits="userSpaceOnUse" x1="186.872" x2="186.872" xlink:href="#lg4" y1="290.871" y2="175.599"/><linearGradient id="SVGID_10_" gradientUnits="userSpaceOnUse" x1="187.118" x2="187.118" xlink:href="#lg4" y1="406.13" y2="290.535"/><linearGradient id="lg5"><stop offset=".0084" stop-color="#e6fe7f"/><stop offset="1" stop-color="#fff"/></linearGradient><linearGradient id="SVGID_11_" gradientUnits="userSpaceOnUse" x1="162.779" x2="243.658" xlink:href="#lg5" y1="353.401" y2="272.522"/><linearGradient id="lg6"><stop offset=".0084" stop-color="#e6fe7f"/><stop offset="1" stop-color="#f9fcca"/></linearGradient><linearGradient id="SVGID_12_" gradientUnits="userSpaceOnUse" x1="145.535" x2="212.94" xlink:href="#lg6" y1="321.245" y2="253.84"/><linearGradient id="SVGID_13_" gradientUnits="userSpaceOnUse" x1="162.699" x2="243.866" xlink:href="#lg5" y1="238.479" y2="157.313"/><linearGradient id="SVGID_14_" gradientUnits="userSpaceOnUse" x1="145.58" x2="213.709" xlink:href="#lg6" y1="206.981" y2="138.852"/><linearGradient id="SVGID_15_" gradientUnits="userSpaceOnUse" x1="164.42" x2="243.882" xlink:href="#lg5" y1="467.511" y2="388.05"/><linearGradient id="SVGID_16_" gradientUnits="userSpaceOnUse" x1="147.888" x2="213.345" xlink:href="#lg6" y1="435.035" y2="369.578"/><linearGradient id="SVGID_17_" gradientUnits="userSpaceOnUse" x1="260.959" x2="388.106" xlink:href="#lg2" y1="169.97" y2="42.823"/><linearGradient id="SVGID_18_" gradientUnits="userSpaceOnUse" x1="318.915" x2="520.458" xlink:href="#lg2" y1="185.911" y2="-15.632"/><linearGradient id="SVGID_19_" gradientUnits="userSpaceOnUse" x1="321.11" x2="527.872" xlink:href="#lg2" y1="330.404" y2="123.642"/><linearGradient id="SVGID_20_" gradientUnits="userSpaceOnUse" x1="156.287" x2="421.658" xlink:href="#lg3" y1="478.791" y2="213.42"/><linearGradient id="SVGID_21_" gradientUnits="userSpaceOnUse" x1="190.1" x2="431.126" xlink:href="#lg3" y1="414.882" y2="173.856"/><linearGradient id="SVGID_22_" gradientUnits="userSpaceOnUse" x1="325.13" x2="325.13" xlink:href="#lg4" y1="290.871" y2="175.599"/><linearGradient id="SVGID_23_" gradientUnits="userSpaceOnUse" x1="324.884" x2="324.884" xlink:href="#lg4" y1="406.13" y2="290.535"/><linearGradient id="SVGID_24_" gradientUnits="userSpaceOnUse" x1="300.594" x2="381.934" xlink:href="#lg5" y1="353.498" y2="272.158"/><linearGradient id="SVGID_25_" gradientUnits="userSpaceOnUse" x1="283.431" x2="351.38" xlink:href="#lg6" y1="321.563" y2="253.613"/><linearGradient id="SVGID_26_" gradientUnits="userSpaceOnUse" x1="301.354" x2="381.072" xlink:href="#lg5" y1="237.911" y2="158.194"/><linearGradient id="SVGID_27_" gradientUnits="userSpaceOnUse" x1="283.533" x2="350.684" xlink:href="#lg6" y1="206.384" y2="139.234"/><linearGradient id="SVGID_28_" gradientUnits="userSpaceOnUse" x1="298.249" x2="380.082" xlink:href="#lg5" y1="468.274" y2="386.442"/><linearGradient id="SVGID_29_" gradientUnits="userSpaceOnUse" x1="282.577" x2="350.102" xlink:href="#lg6" y1="436.269" y2="368.743"/><g><circle cx="256.001" cy="256" fill="url(#SVGID_1_)" r="256"/><circle cx="256" cy="256.001" fill="url(#SVGID_2_)" r="256"/><circle cx="256" cy="256.001" fill="url(#SVGID_3_)" r="256"/><path d="m98.618 99.565c2.552 37.34 34.244 65.945 73.438 65.618.415-39.279-27.851-71.206-64.837-74.194-4.687-.384-8.931 3.846-8.601 8.576z" fill="url(#SVGID_4_)"/><path d="m64.661 213.221c3.855 37.144 36.705 66.404 76.079 66.635-.202-39.145-29.501-71.216-67.538-74.967-4.812-.482-9.027 3.624-8.541 8.332z" fill="url(#SVGID_5_)"/><path d="m247.979 96.816c-4.333 38.258-36.713 67.978-75.923 68.367.624-39.177 30.523-72.161 67.722-76.769 4.718-.578 8.758 3.567 8.201 8.402z" fill="url(#SVGID_6_)"/><path d="m171.868 180.485c-.865 77.19-.425 154.381 1.32 231.571 20.076.358 40.152.586 60.227.683-.476-77.531-.596-155.062-.36-232.593-20.395.049-40.791.162-61.187.339z" fill="url(#SVGID_7_)"/><path d="m141.275 180.8c-1.179 76.874-.579 153.748 1.8 230.622 20.076.488 40.152.846 60.227 1.074-1.111-77.409-1.39-154.819-.84-232.228-20.396.112-40.792.29-61.187.532z" fill="url(#SVGID_8_)"/><path d="m141.275 180.8c-.584 38.098-.732 76.197-.442 114.295 30.712.18 61.423.288 92.135.324-.058-38.424-.028-76.848.089-115.272-30.595.072-61.189.29-91.782.653z" fill="url(#SVGID_9_)"/><path d="m140.832 295.095c.29 38.098 1.016 76.197 2.18 114.295 30.13.722 60.261 1.156 90.391 1.3-.233-38.424-.378-76.848-.436-115.272-30.711-.036-61.423-.143-92.135-.323z" fill="url(#SVGID_10_)"/><path d="m232.949 280.049c-10.245-.007-20.491-.019-30.736-.036.021 10.23.058 20.461.108 30.691 10.225.039 20.45.067 30.674.084 8.468.014 15.329-6.866 15.328-15.358-.003-8.491-6.886-15.376-15.374-15.381z" fill="url(#SVGID_11_)"/><path d="m217.611 295.394c-.02-8.484-6.91-15.369-15.399-15.381-20.491-.033-40.982-.086-61.473-.158-8.489-.026-15.337 6.752-15.263 15.143s7.027 15.262 15.495 15.335c20.45.168 40.899.291 61.349.37 8.468.035 15.311-6.824 15.291-15.309z" fill="url(#SVGID_12_)"/><path d="m233.107 164.777c-10.175.029-20.35.077-30.525.145-.087 10.23-.16 20.461-.218 30.691 10.217-.045 20.433-.077 30.65-.097 8.466-.016 15.334-6.902 15.339-15.394.005-8.491-6.821-15.37-15.246-15.345z" fill="url(#SVGID_13_)"/><path d="m217.759 180.195c.039-8.484-6.751-15.331-15.177-15.273-20.35.135-40.7.348-61.05.638-8.424.124-15.405 7.042-15.554 15.433s6.621 15.122 15.086 15.046c20.433-.194 40.866-.336 61.3-.426 8.467-.036 15.355-6.934 15.395-15.418z" fill="url(#SVGID_14_)"/><path d="m233.315 395.321c-10.083-.043-20.165-.116-30.248-.217.13 10.23.275 20.461.434 30.691 10 .124 20 .212 30 .265 8.276.045 14.977-6.831 14.967-15.321-.01-8.492-6.794-15.383-15.153-15.418z" fill="url(#SVGID_15_)"/><path d="m218.338 410.594c-.079-8.485-6.912-15.407-15.271-15.49-20.165-.202-40.331-.52-60.496-.953-8.359-.175-14.922 6.463-14.623 14.854.298 8.39 7.277 15.402 15.554 15.625 20 .53 40 .918 60 1.166 8.276.103 14.915-6.718 14.836-15.202z" fill="url(#SVGID_16_)"/><path d="m264.022 96.816c4.333 38.258 36.713 67.978 75.923 68.367-.625-39.177-30.523-72.161-67.722-76.769-4.716-.578-8.756 3.567-8.201 8.402z" fill="url(#SVGID_17_)"/><path d="m413.383 99.565c-2.553 37.34-34.245 65.945-73.438 65.618-.416-39.279 27.85-71.206 64.837-74.194 4.689-.384 8.933 3.846 8.601 8.576z" fill="url(#SVGID_18_)"/><path d="m447.341 213.221c-3.857 37.144-36.706 66.404-76.079 66.635.202-39.145 29.5-71.216 67.538-74.967 4.813-.482 9.027 3.624 8.541 8.332z" fill="url(#SVGID_19_)"/><path d="m309.54 180.267c.55 77.409.271 154.819-.84 232.228 20.076-.228 40.152-.586 60.227-1.074 2.379-76.874 2.979-153.748 1.8-230.622-20.396-.241-40.791-.419-61.187-.532z" fill="url(#SVGID_20_)"/><path d="m278.946 180.147c.236 77.531.116 155.062-.36 232.593 20.076-.098 40.151-.325 60.227-.683 1.745-77.19 2.185-154.381 1.32-231.571-20.395-.178-40.791-.291-61.187-.339z" fill="url(#SVGID_21_)"/><path d="m278.946 180.147c.117 38.424.146 76.848.089 115.272 30.712-.036 61.423-.144 92.135-.324.29-38.098.142-76.197-.442-114.295-30.594-.363-61.188-.581-91.782-.653z" fill="url(#SVGID_22_)"/><path d="m279.035 295.418c-.058 38.424-.203 76.848-.436 115.272 30.13-.145 60.261-.578 90.391-1.3 1.164-38.098 1.89-76.197 2.18-114.295-30.712.18-61.424.287-92.135.323z" fill="url(#SVGID_23_)"/><path d="m371.262 279.855c-10.245.036-20.491.067-30.736.093-.034 10.201-.091 20.403-.17 30.604 10.225-.062 20.45-.134 30.674-.219 8.468-.074 15.421-6.945 15.495-15.335.073-8.39-6.776-15.168-15.263-15.143z" fill="url(#SVGID_24_)"/><path d="m355.814 295.179c.057-8.432-6.799-15.249-15.288-15.23-20.491.053-40.982.086-61.473.1-8.489.005-15.371 6.89-15.374 15.382-.002 8.491 6.86 15.372 15.328 15.358 20.45-.034 40.899-.112 61.349-.235 8.467-.055 15.401-6.944 15.458-15.375z" fill="url(#SVGID_25_)"/><path d="m370.47 165.56c-10.175-.145-20.35-.271-30.525-.377.137 10.201.251 20.403.343 30.604 10.217.071 20.433.155 30.65.252 8.467.076 15.236-6.655 15.086-15.046-.149-8.391-7.131-15.309-15.554-15.433z" fill="url(#SVGID_26_)"/><path d="m355.43 180.63c-.115-8.432-7.059-15.356-15.485-15.447-20.35-.213-40.7-.348-61.05-.406-8.426-.025-15.251 6.854-15.245 15.345s6.872 15.378 15.339 15.394c20.433.039 40.866.129 61.3.271 8.464.056 15.256-6.725 15.141-15.157z" fill="url(#SVGID_27_)"/><path d="m369.432 394.15c-10.083.217-20.166.404-30.248.563-.205 10.201-.432 20.403-.683 30.604 10-.194 20-.424 30-.689 8.277-.223 15.257-7.234 15.554-15.625.297-8.39-6.265-15.027-14.623-14.853z" fill="url(#SVGID_28_)"/><path d="m353.924 409.727c.229-8.432-6.383-15.141-14.741-15.013-20.165.318-40.331.52-60.496.607-8.359.036-15.142 6.926-15.154 15.418-.01 8.491 6.689 15.366 14.967 15.321 20-.106 40-.353 60-.742 8.277-.164 15.195-7.16 15.424-15.591z" fill="url(#SVGID_29_)"/></g></svg>