<svg id="Capa_1" enable-background="new 0 0 512 512" height="512" viewBox="0 0 512 512" width="512" xmlns="http://www.w3.org/2000/svg" xmlns:xlink="http://www.w3.org/1999/xlink"><linearGradient id="SVGID_1_" gradientUnits="userSpaceOnUse" x1="74.98" x2="437.019" y1="437.02" y2="74.981"><stop offset="0" stop-color="#560dff"/><stop offset=".2342" stop-color="#6351f6"/><stop offset=".5089" stop-color="#729bed"/><stop offset=".7373" stop-color="#7cd1e6"/><stop offset=".9074" stop-color="#83f2e2"/><stop offset="1" stop-color="#85ffe0"/></linearGradient><radialGradient id="SVGID_2_" cx="254.252" cy="377.024" gradientUnits="userSpaceOnUse" r="379.268"><stop offset="0" stop-color="#0056e0" stop-opacity=".8"/><stop offset=".2235" stop-color="#0085cb" stop-opacity=".615"/><stop offset=".4523" stop-color="#00afb9" stop-opacity=".425"/><stop offset=".6602" stop-color="#00cdac" stop-opacity=".253"/><stop offset=".838" stop-color="#00dfa4" stop-opacity=".105"/><stop offset=".9648" stop-color="#00e5a1" stop-opacity="0"/></radialGradient><linearGradient id="lg1"><stop offset="0" stop-color="#3ca1ff"/><stop offset=".137" stop-color="#47affa"/><stop offset=".7197" stop-color="#74e9e7"/><stop offset="1" stop-color="#85ffe0"/></linearGradient><linearGradient id="SVGID_3_" gradientUnits="userSpaceOnUse" x1="65.871" x2="363.701" xlink:href="#lg1" y1="518.313" y2="220.483"/><linearGradient id="SVGID_4_" gradientUnits="userSpaceOnUse" x1="125.567" x2="313.527" y1="456.788" y2="268.828"><stop offset="0" stop-color="#3ca1ff"/><stop offset=".2987" stop-color="#4fb9f7"/><stop offset=".9284" stop-color="#7ff7e2"/><stop offset="1" stop-color="#85ffe0"/></linearGradient><radialGradient id="SVGID_5_" cx="255.999" cy="156.018" gradientUnits="userSpaceOnUse" r="154.043"><stop offset="0" stop-color="#fff"/><stop offset=".2649" stop-color="#e3fff8" stop-opacity=".735"/><stop offset=".8348" stop-color="#9bffe6" stop-opacity=".165"/><stop offset="1" stop-color="#85ffe0" stop-opacity="0"/></radialGradient><linearGradient id="SVGID_6_" gradientUnits="userSpaceOnUse" x1="5.788" x2="337.123" xlink:href="#lg1" y1="407.005" y2="75.671"/><linearGradient id="lg2"><stop offset=".0056" stop-color="#85ffe0"/><stop offset=".127" stop-color="#a3ffe8"/><stop offset=".2884" stop-color="#c4fff0"/><stop offset=".4545" stop-color="#defff7"/><stop offset=".6251" stop-color="#f0fffb"/><stop offset=".8031" stop-color="#fbfffe"/><stop offset="1" stop-color="#fff"/></linearGradient><linearGradient id="SVGID_7_" gradientUnits="userSpaceOnUse" x1="130.292" x2="361.915" xlink:href="#lg2" y1="282.144" y2="50.522"/><linearGradient id="lg3"><stop offset=".0056" stop-color="#85ffe0"/><stop offset=".1254" stop-color="#a3ffe8"/><stop offset=".2847" stop-color="#c4fff0"/><stop offset=".4487" stop-color="#defff7"/><stop offset=".6171" stop-color="#f0fffb"/><stop offset=".7927" stop-color="#fbfffe"/><stop offset=".9871" stop-color="#fff"/></linearGradient><linearGradient id="SVGID_8_" gradientUnits="userSpaceOnUse" x1="200.9" x2="349.989" xlink:href="#lg3" y1="164.53" y2="15.441"/><linearGradient id="SVGID_9_" gradientUnits="userSpaceOnUse" x1="273.536" x2="372.626" xlink:href="#lg3" y1="192.788" y2="93.698"/><linearGradient id="SVGID_10_" gradientUnits="userSpaceOnUse" x1="181.674" x2="386.28" xlink:href="#lg2" y1="231.227" y2="26.621"/><linearGradient id="SVGID_11_" gradientUnits="userSpaceOnUse" x1="160.866" x2="261.416" y1="251.241" y2="150.692"><stop offset="0" stop-color="#00e5a1"/><stop offset=".5" stop-color="#85ffe0"/><stop offset="1" stop-color="#fff"/></linearGradient><linearGradient id="SVGID_12_" gradientUnits="userSpaceOnUse" x1="198.335" x2="298.187" xlink:href="#lg3" y1="213.098" y2="113.245"/><g><circle cx="256" cy="256" fill="url(#SVGID_1_)" r="256"/><circle cx="256" cy="256" fill="url(#SVGID_2_)" r="256"/><path d="m414.031 318.969c-26.327.381-26.177-16.994-52.555-16.783-26.371.179-26.463 17.664-52.8 17.818-26.333.114-26.304-17.425-52.679-17.41-26.374-.016-26.345 17.524-52.677 17.41-26.335-.154-26.427-17.638-52.796-17.818-26.377-.211-26.228 17.164-52.555 16.783-21.525-.334-25.605-11.915-40.766-16.315-5.762-1.672-10.943 3.477-9.288 9.128 26.78 89.416 111.504 160.83 208.085 160.962 96.581-.132 181.305-71.545 208.085-160.962 1.655-5.65-3.527-10.8-9.289-9.128-15.16 4.4-19.24 15.981-40.765 16.315z" fill="url(#SVGID_3_)"/><path d="m316.366 441.548c-86.049 1.319-161.355-53.479-196.022-128.445-5.474 3.296-11.775 6.023-22.376 5.866-21.525-.334-25.605-11.915-40.766-16.315-5.762-1.672-10.943 3.477-9.288 9.128 26.781 89.416 111.505 160.83 208.086 160.962 45.903.024 88.547-16.023 124.05-42.332-20.215 6.894-41.577 10.82-63.684 11.136z" fill="url(#SVGID_4_)"/><path d="m409.815 157.099c.93 83.6-69.022 152.929-153.815 153.182-84.793-.253-154.745-69.584-153.815-153.182 1.3-83.562 71.252-155.127 153.815-155.343 82.563.217 152.515 71.781 153.815 155.343z" fill="url(#SVGID_5_)"/><path d="m256 40.194c-62.616.089-114.782 53.161-115.489 116.434-.55 63.295 51.616 115.106 115.489 115.216 63.873-.109 116.039-51.921 115.489-115.216-.707-63.274-52.873-116.345-115.489-116.434z" fill="url(#SVGID_6_)"/><path d="m256 70.944c-46.297.034-84.458 38.695-84.828 85.404-.308 46.721 37.853 84.701 84.828 84.746 46.975-.045 85.136-38.026 84.828-84.746-.37-46.71-38.531-85.371-84.828-85.404z" fill="url(#SVGID_7_)"/><path d="m256 86.319c-12.602 0-22.857 10.37-22.897 23.101-.039 12.732 10.216 23.024 22.897 23.024 12.68-.001 22.935-10.292 22.897-23.024-.04-12.731-10.295-23.102-22.897-23.101z" fill="url(#SVGID_8_)"/><path d="m310.102 140.803c-8.454-.051-15.287 6.799-15.265 15.285.022 8.485 6.908 15.382 15.384 15.415 8.476.032 15.32-6.796 15.276-15.263-.043-8.467-6.941-15.386-15.395-15.437z" fill="url(#SVGID_9_)"/><path d="m271.37 210.347c-46.982-.056-85.05-37.977-84.686-84.775.052-7.524 1.096-14.823 2.979-21.789-11.418 14.555-18.37 32.798-18.491 52.563-.308 46.721 37.853 84.701 84.828 84.746 39.43-.014 72.646-26.842 82.111-63.031-15.47 19.621-39.616 32.298-66.741 32.286z" fill="url(#SVGID_10_)"/><path d="m208.282 182.33c-3.649 2.818-6.017 7.219-6.027 12.171-.018 8.476 6.855 15.337 15.344 15.329 6.324-.007 11.754-3.832 14.116-9.293-7.636-8.302-11.959-11.932-23.433-18.207z" fill="url(#SVGID_11_)"/><path d="m231.715 200.537c.809-1.869 1.263-3.927 1.265-6.092.006-8.488-6.859-15.362-15.336-15.34-3.525.009-6.765 1.219-9.362 3.225 6.64 7.354 14.572 13.531 23.433 18.207z" fill="url(#SVGID_12_)"/></g></svg>