<svg id="Save_the_world" height="512" viewBox="0 0 64 64" width="512" xmlns="http://www.w3.org/2000/svg" xmlns:xlink="http://www.w3.org/1999/xlink" data-name="Save the world"><linearGradient id="gradient_ice" gradientUnits="userSpaceOnUse" x1="9.074" x2="58.75" y1="61.283" y2="6.236"><stop offset="0" stop-color="#fff200"/><stop offset="1" stop-color="#cd118c"/></linearGradient><linearGradient id="gradient_ice-2" x1="-11.917" x2="37.76" xlink:href="#gradient_ice" y1="42.34" y2="-12.707"/><linearGradient id="gradient_ice-3" x1="-4.201" x2="45.476" xlink:href="#gradient_ice" y1="49.303" y2="-5.743"/><linearGradient id="gradient_ice-4" x1="3.515" x2="53.192" xlink:href="#gradient_ice" y1="56.267" y2="1.22"/><linearGradient id="gradient_ice-5" x1="11.232" x2="60.908" xlink:href="#gradient_ice" y1="63.23" y2="8.183"/><linearGradient id="gradient_ice-6" x1="12.314" x2="61.99" xlink:href="#gradient_ice" y1="64.207" y2="9.16"/><linearGradient id="gradient_ice-7" x1="16.898" x2="66.574" xlink:href="#gradient_ice" y1="68.343" y2="13.296"/><linearGradient id="gradient_ice-8" x1="3.495" x2="53.172" xlink:href="#gradient_ice" y1="56.248" y2="1.202"/><linearGradient id="gradient_ice-9" x1="5.875" x2="55.551" xlink:href="#gradient_ice" y1="58.396" y2="3.349"/><linearGradient id="gradient_ice-10" x1="22.234" x2="71.911" xlink:href="#gradient_ice" y1="73.159" y2="18.113"/><linearGradient id="gradient_ice-11" x1="26.818" x2="76.495" xlink:href="#gradient_ice" y1="77.296" y2="22.249"/><path d="m61 26v-17a1 1 0 0 0 -1.21-.98l-1.79.38v-5.4a1 1 0 0 0 -1-1h-5a1 1 0 0 0 -1 1v6.9l-4 .86v-1.76a1 1 0 0 0 -1.21-.98l-1.79.39v-5.41a1 1 0 0 0 -1-1h-5a1 1 0 0 0 -1 1v6.91l-4 .85v-1.76a1 1 0 0 0 -1.21-.98l-1.79.39v-5.41a1 1 0 0 0 -1-1h-5a1 1 0 0 0 -1 1v6.91l-4 .85v-1.76a1 1 0 0 0 -1.21-.98l-1.79.39v-5.41a1 1 0 0 0 -1-1h-5a1 1 0 0 0 -1 1v6.91l-5.21 1.11a1 1 0 0 0 -.79.98v14a1 1 0 0 0 -1 1v34a1 1 0 0 0 1 1h58a1 1 0 0 0 1-1v-34a1 1 0 0 0 -1-1zm-8-22h3v4.83l-3 .64zm-6 8.81 5.21-1.12 5-1.07 1.79-.38v15.76h-12zm-8-8.81h3v4.83l-3 .65zm-6 8.81 12-2.57v15.76h-12zm-8-8.81h3v4.83l-3 .65zm-6 8.81 12-2.57v15.76h-12zm-8-8.81h3v4.83l-3 .65zm-6 8.81 12-2.57v15.76h-12zm55 47.19h-56v-6.03a9.851 9.851 0 0 1 2.58.94 11.029 11.029 0 0 0 5.41 1.29 10.962 10.962 0 0 0 5.43-1.3 9 9 0 0 1 4.57-1.1 9 9 0 0 1 4.57 1.1 10.993 10.993 0 0 0 5.43 1.3 10.962 10.962 0 0 0 5.43-1.3 9 9 0 0 1 4.57-1.1 9 9 0 0 1 4.57 1.1 11.99 11.99 0 0 0 10.86 0 10.226 10.226 0 0 1 2.58-.93zm-46-24a5 5 0 0 0 -5 5v2.31a6 6 0 1 1 10 0v-2.31a5 5 0 0 0 -5-5zm4 15a1.992 1.992 0 0 1 1.72 1 11.329 11.329 0 0 0 -3.16 1.1 9 9 0 0 1 -4.57 1.1 10.209 10.209 0 0 1 -2.09-.19c.04 0 .07-.01.1-.01a1 1 0 0 0 1-1v-12a3 3 0 0 1 6 0v9a1 1 0 0 0 1 1zm14-15a5 5 0 0 0 -5 5v2.31a6 6 0 1 1 10 0v-2.31a5 5 0 0 0 -5-5zm-4 15a1 1 0 0 0 1-1v-9a3 3 0 0 1 6 0v11.18a.992.992 0 0 0 .66.94 2.268 2.268 0 0 1 .41.21 8.6 8.6 0 0 1 -4.08.87 9 9 0 0 1 -4.57-1.1 13.792 13.792 0 0 0 -1.9-.79 3 3 0 0 1 2.48-1.31zm22-15a5 5 0 0 0 -5 5v2.31a6 6 0 1 1 10 0v-2.31a5 5 0 0 0 -5-5zm4 17a1 1 0 0 1 .96.78 10.291 10.291 0 0 1 -7.54-.68 13.472 13.472 0 0 0 -1.6-.69 2.038 2.038 0 0 1 .52-.29 1.006 1.006 0 0 0 .66-.94v-10.18a3 3 0 0 1 6 0v11a1 1 0 0 0 1 1zm6-1.05a10.782 10.782 0 0 0 -3.18 1.03 3.044 3.044 0 0 0 -1.82-1.81v-4.95a8 8 0 1 0 -10 0v4.33a4.051 4.051 0 0 0 -1.38 1.35 13.324 13.324 0 0 0 -1.63-.1 10.787 10.787 0 0 0 -3.94.65 3.923 3.923 0 0 0 -1.05-.9v-5.33a8 8 0 1 0 -10 0v2.88a4.975 4.975 0 0 0 -3.52 2.78 13.4 13.4 0 0 0 -1.49-.08c-.07 0-.12.01-.19.01a3.96 3.96 0 0 0 -2.8-2.68v-2.91a8 8 0 1 0 -10 0v5.91a3.91 3.91 0 0 0 -1.68.92 10.73 10.73 0 0 0 -3.32-1.1v-23.95h56z" fill="url(#gradient_ice)"/><path d="m13 14h-5a1 1 0 0 0 -1 1v5a1 1 0 0 0 1 1h5a1 1 0 0 0 1-1v-5a1 1 0 0 0 -1-1zm-1 5h-3v-3h3z" fill="url(#gradient_ice-2)"/><path d="m22 21h5a1 1 0 0 0 1-1v-5a1 1 0 0 0 -1-1h-5a1 1 0 0 0 -1 1v5a1 1 0 0 0 1 1zm1-5h3v3h-3z" fill="url(#gradient_ice-3)"/><path d="m36 21h5a1 1 0 0 0 1-1v-5a1 1 0 0 0 -1-1h-5a1 1 0 0 0 -1 1v5a1 1 0 0 0 1 1zm1-5h3v3h-3z" fill="url(#gradient_ice-4)"/><path d="m50 21h5a1 1 0 0 0 1-1v-5a1 1 0 0 0 -1-1h-5a1 1 0 0 0 -1 1v5a1 1 0 0 0 1 1zm1-5h3v3h-3z" fill="url(#gradient_ice-5)"/><path d="m30 42h2v3h-2z" fill="url(#gradient_ice-6)"/><path d="m32 48h2v5h-2z" fill="url(#gradient_ice-7)"/><path d="m14 42h2v3h-2z" fill="url(#gradient_ice-8)"/><path d="m12 48h2v5h-2z" fill="url(#gradient_ice-9)"/><path d="m48 42h2v3h-2z" fill="url(#gradient_ice-10)"/><path d="m50 48h2v5h-2z" fill="url(#gradient_ice-11)"/></svg>