<svg id="Capa_1" enable-background="new 0 0 512 512" height="512" viewBox="0 0 512 512" width="512" xmlns="http://www.w3.org/2000/svg" xmlns:xlink="http://www.w3.org/1999/xlink"><linearGradient id="SVGID_1_" gradientUnits="userSpaceOnUse" x1="74.984" x2="437.023" y1="437.023" y2="74.984"><stop offset="0" stop-color="#008a4c"/><stop offset="1" stop-color="#d3ff33"/></linearGradient><radialGradient id="SVGID_2_" cx="256.004" cy="256.003" gradientUnits="userSpaceOnUse" r="256"><stop offset="0" stop-color="#008a4c" stop-opacity=".8"/><stop offset=".109" stop-color="#0f924a" stop-opacity=".713"/><stop offset=".3171" stop-color="#35a746" stop-opacity=".546"/><stop offset=".6028" stop-color="#73c93e" stop-opacity=".318"/><stop offset=".9518" stop-color="#c7f834" stop-opacity=".039"/><stop offset="1" stop-color="#d3ff33" stop-opacity="0"/></radialGradient><linearGradient id="lg1"><stop offset="0" stop-color="#00aa45"/><stop offset=".1212" stop-color="#12b143"/><stop offset=".3647" stop-color="#41c43f"/><stop offset=".7046" stop-color="#8ce339"/><stop offset="1" stop-color="#d3ff33"/></linearGradient><linearGradient id="SVGID_3_" gradientUnits="userSpaceOnUse" x1="-19.054" x2="362.297" xlink:href="#lg1" y1="685.067" y2="303.715"/><linearGradient id="SVGID_4_" gradientUnits="userSpaceOnUse" x1="-29.332" x2="353.324" xlink:href="#lg1" y1="598.741" y2="216.086"/><linearGradient id="SVGID_5_" gradientUnits="userSpaceOnUse" x1="112.125" x2="386.794" y1="272.557" y2="-2.112"><stop offset="0" stop-color="#5ccd38" stop-opacity=".8"/><stop offset=".1391" stop-color="#6bd145" stop-opacity=".731"/><stop offset=".4045" stop-color="#91dd69" stop-opacity=".598"/><stop offset=".7656" stop-color="#ceefa2" stop-opacity=".417"/><stop offset="1" stop-color="#f9fcca" stop-opacity=".3"/></linearGradient><linearGradient id="lg2"><stop offset="0" stop-color="#95e12e" stop-opacity=".5"/><stop offset=".2404" stop-color="#a3e63c" stop-opacity=".38"/><stop offset=".6967" stop-color="#c9f462" stop-opacity=".152"/><stop offset="1" stop-color="#e6fe7f" stop-opacity="0"/></linearGradient><linearGradient id="SVGID_6_" gradientTransform="matrix(.866 -.5 .5 .866 -93.703 162.298)" gradientUnits="userSpaceOnUse" x1="113.01" x2="387.232" xlink:href="#lg2" y1="273.179" y2="-1.042"/><linearGradient id="SVGID_7_" gradientTransform="matrix(.5 -.866 .866 .5 -93.702 349.703)" gradientUnits="userSpaceOnUse" x1="113.43" x2="384.367" xlink:href="#lg2" y1="271.459" y2=".521"/><linearGradient id="SVGID_8_" gradientTransform="matrix(0 -1 1 0 0 512)" gradientUnits="userSpaceOnUse" x1="112.126" x2="386.794" xlink:href="#lg2" y1="272.557" y2="-2.112"/><linearGradient id="SVGID_9_" gradientTransform="matrix(-.866 -.5 .5 -.866 349.703 605.702)" gradientUnits="userSpaceOnUse" x1="113.429" x2="384.368" xlink:href="#lg2" y1="271.459" y2=".521"/><linearGradient id="SVGID_10_" gradientTransform="matrix(-1 0 0 -1 512 512)" gradientUnits="userSpaceOnUse" x1="112.125" x2="386.794" xlink:href="#lg2" y1="272.557" y2="-2.112"/><linearGradient id="SVGID_11_" gradientTransform="matrix(-.866 .5 -.5 -.866 605.703 349.702)" gradientUnits="userSpaceOnUse" x1="113.01" x2="387.232" xlink:href="#lg2" y1="273.179" y2="-1.042"/><linearGradient id="SVGID_12_" gradientTransform="matrix(0 1 -1 0 512 0)" gradientUnits="userSpaceOnUse" x1="112.126" x2="386.795" xlink:href="#lg2" y1="272.557" y2="-2.112"/><linearGradient id="SVGID_13_" gradientTransform="matrix(.5 .866 -.866 .5 349.702 -93.703)" gradientUnits="userSpaceOnUse" x1="113.01" x2="387.231" xlink:href="#lg2" y1="273.179" y2="-1.042"/><linearGradient id="SVGID_14_" gradientTransform="matrix(.866 .5 -.5 .866 162.298 -93.703)" gradientUnits="userSpaceOnUse" x1="113.429" x2="384.368" xlink:href="#lg2" y1="271.459" y2=".521"/><linearGradient id="lg3"><stop offset=".0084" stop-color="#d3ff33"/><stop offset="1" stop-color="#f9fcca"/></linearGradient><linearGradient id="SVGID_15_" gradientTransform="matrix(-.5 -.866 .866 -.5 162.298 605.702)" gradientUnits="userSpaceOnUse" x1="30.416" x2="316.318" xlink:href="#lg3" y1="355.773" y2="69.871"/><linearGradient id="SVGID_16_" gradientTransform="matrix(-.5 .866 -.866 -.5 605.702 162.297)" gradientUnits="userSpaceOnUse" x1="31.824" x2="314.303" xlink:href="#lg3" y1="353.065" y2="70.586"/><linearGradient id="SVGID_17_" gradientUnits="userSpaceOnUse" x1="29.397" x2="315.765" xlink:href="#lg3" y1="355.285" y2="68.917"/><linearGradient id="SVGID_18_" gradientUnits="userSpaceOnUse" x1="203.557" x2="380.059" y1="308.443" y2="131.941"><stop offset="0" stop-color="#b8ef5c"/><stop offset="1" stop-color="#e6fe7f"/></linearGradient><linearGradient id="SVGID_19_" gradientUnits="userSpaceOnUse" x1="124.744" x2="284.54" xlink:href="#lg3" y1="387.256" y2="227.46"/><linearGradient id="SVGID_20_" gradientUnits="userSpaceOnUse" x1="176.881" x2="324.015" xlink:href="#lg3" y1="335.135" y2="188.002"/><g><circle cx="256" cy="256" fill="url(#SVGID_1_)" r="256"/><circle cx="256" cy="256" fill="url(#SVGID_2_)" r="256"/><path d="m291.726 477.395c-3.24-49.608-6.713-99.239-10.308-148.884-16.945.029-33.89.029-50.835 0-3.595 49.645-7.068 99.275-10.308 148.884-.264 4.052 2.603 7.689 6.544 8.236 9.562 1.327 19.295 2.019 29.181 2.019s19.62-.693 29.181-2.019c3.941-.547 6.808-4.184 6.545-8.236z" fill="url(#SVGID_3_)"/><path d="m232.958 295.932c-.797 10.86-1.589 21.72-2.375 32.579 7.961 2.814 16.508 4.363 25.417 4.363s17.457-1.549 25.418-4.363c-.786-10.859-1.579-21.719-2.376-32.579-15.361.013-30.723.013-46.084 0z" fill="url(#SVGID_4_)"/><path d="m301.882 148.479c-.021-4.54-.706-8.926-1.943-13.077-.062.009-29.633-100.019-29.517-100.016-1.87-6.371-7.62-11.037-14.422-11.037-6.803-.001-12.552 4.666-14.412 11.037.107-.003-29.464 100.025-29.539 100.016-1.225 4.15-1.91 8.536-1.931 13.076-.027 5.923 1.076 11.575 3.087 16.771-.035-.013 19.728 50.807 19.753 50.818 15.361-.013 30.723-.013 46.084 0 6.614-16.952 13.207-33.894 19.754-50.818 2.011-5.195 3.113-10.847 3.086-16.77z" fill="url(#SVGID_5_)"/><path d="m242.218 139.742c-2.253-3.932-4.999-7.392-8.104-10.363-.24-.189-74.219-71.211-73.913-70.97-4.654-4.465-11.902-5.396-17.907-1.8-6.004 3.596-8.884 10.574-7.487 16.95-.267-.083 22.605 100.315 22.829 100.395.99 4.173 2.573 8.277 4.816 12.184 2.927 5.096 6.709 9.4 11.057 12.86-.031-.038 42.539 33.928 42.561 33.958 13.316-7.692 26.629-15.389 39.929-23.075-2.734-18.006-5.462-36.011-8.172-54.014-.833-5.528-2.67-10.995-5.609-16.125z" fill="url(#SVGID_6_)"/><path d="m186.137 162.452c-3.907-2.244-8.011-3.827-12.19-4.806-.075-.234-100.472-23.106-100.384-22.848-6.381-1.388-13.358 1.492-16.955 7.496-3.595 6.004-2.665 13.253 1.805 17.899-.246-.297 70.776 73.682 70.959 73.932 2.978 3.094 6.438 5.841 10.369 8.093 5.13 2.939 10.598 4.776 16.125 5.607-.002-.011 54.013 8.165 54.013 8.173 7.686-13.3 15.384-26.613 23.075-39.929-11.353-14.212-22.681-28.407-33.957-42.562-3.46-4.345-7.764-8.128-12.86-11.055z" fill="url(#SVGID_7_)"/><path d="m148.479 210.118c-4.541.02-8.927.706-13.077 1.943.009.063-100.018 29.633-100.016 29.517-6.37 1.87-11.037 7.619-11.037 14.422s4.666 12.552 11.037 14.412c-.002-.107 100.026 29.464 100.016 29.539 4.15 1.225 8.537 1.91 13.077 1.931 5.924.027 11.576-1.075 16.77-3.087-.014.034 50.806-19.727 50.818-19.753-.013-15.361-.013-30.723 0-46.084-16.952-6.614-33.894-13.206-50.818-19.754-5.194-2.011-10.846-3.113-16.77-3.086z" fill="url(#SVGID_8_)"/><path d="m162.452 325.863c-2.244 3.906-3.827 8.011-4.805 12.19-.234.074-23.107 100.472-22.848 100.384-1.389 6.382 1.492 13.359 7.495 16.955 6.005 3.595 13.252 2.665 17.899-1.805-.298.245 73.682-70.777 73.932-70.959 3.094-2.978 5.841-6.437 8.093-10.369 2.939-5.131 4.776-10.597 5.607-16.125-.011.002 8.165-54.012 8.174-54.013-13.3-7.686-26.613-15.384-39.929-23.075-14.212 11.353-28.407 22.681-42.562 33.958-4.346 3.46-8.13 7.762-11.056 12.859z" fill="url(#SVGID_9_)"/><path d="m210.118 363.521c.021 4.541.706 8.926 1.943 13.077.062-.009 29.633 100.018 29.517 100.016 1.87 6.371 7.619 11.037 14.422 11.037s12.552-4.665 14.412-11.037c-.106.003 29.464-100.025 29.539-100.016 1.225-4.15 1.91-8.536 1.931-13.077.027-5.924-1.075-11.575-3.087-16.771.035.014-19.727-50.807-19.753-50.818-15.361.013-30.723.013-46.084 0-6.614 16.952-13.207 33.894-19.754 50.818-2.011 5.196-3.112 10.848-3.086 16.771z" fill="url(#SVGID_10_)"/><path d="m269.782 372.258c2.253 3.933 4.999 7.391 8.104 10.363.24.189 74.219 71.21 73.913 70.97 4.654 4.465 11.903 5.395 17.907 1.8 6.003-3.596 8.884-10.574 7.487-16.95.267.083-22.606-100.315-22.829-100.395-.989-4.173-2.572-8.277-4.816-12.183-2.928-5.097-6.71-9.4-11.057-12.86.03.037-42.538-33.928-42.561-33.958-13.316 7.692-26.629 15.389-39.929 23.075 2.734 18.005 5.462 36.011 8.172 54.014.832 5.527 2.669 10.994 5.609 16.124z" fill="url(#SVGID_11_)"/><path d="m363.521 301.882c4.541-.021 8.926-.706 13.077-1.943-.01-.063 100.018-29.633 100.016-29.517 6.371-1.87 11.037-7.618 11.037-14.422 0-6.803-4.667-12.552-11.037-14.412.002.107-100.025-29.464-100.016-29.539-4.15-1.224-8.538-1.911-13.077-1.931-5.924-.027-11.574 1.075-16.77 3.087.014-.034-50.807 19.727-50.818 19.753.013 15.361.013 30.723 0 46.084 16.952 6.614 33.894 13.206 50.818 19.754 5.194 2.011 10.846 3.113 16.77 3.086z" fill="url(#SVGID_12_)"/><path d="m372.258 242.218c3.933-2.253 7.392-5 10.363-8.104.189-.24 71.21-74.219 70.97-73.913 4.464-4.654 5.396-11.903 1.8-17.907-3.595-6.003-10.574-8.884-16.95-7.487.083-.267-100.314 22.605-100.395 22.829-4.172.989-8.277 2.572-12.183 4.816-5.097 2.927-9.399 6.71-12.86 11.057.037-.03-33.929 42.538-33.958 42.561 7.692 13.316 15.389 26.629 23.075 39.929 18.005-2.734 36.011-5.462 54.014-8.172 5.526-.832 10.993-2.67 16.124-5.609z" fill="url(#SVGID_13_)"/><path d="m349.548 186.137c2.245-3.907 3.827-8.011 4.805-12.19.235-.074 23.107-100.472 22.848-100.383 1.389-6.381-1.492-13.359-7.495-16.955-6.004-3.596-13.253-2.665-17.899 1.805.296-.245-73.682 70.776-73.932 70.959-3.094 2.977-5.84 6.437-8.093 10.369-2.94 5.13-4.776 10.597-5.607 16.125.012-.002-8.165 54.012-8.173 54.013 13.3 7.686 26.613 15.384 39.929 23.075 14.212-11.353 28.407-22.681 42.562-33.958 4.346-3.461 8.128-7.763 11.055-12.86z" fill="url(#SVGID_14_)"/><path d="m139.742 269.782c-3.932 2.253-7.392 4.999-10.363 8.104-.19.24-71.21 74.219-70.97 73.913-4.466 4.654-5.395 11.903-1.8 17.907 3.595 6.003 10.574 8.885 16.95 7.487-.084.268 100.314-22.605 100.395-22.829 4.172-.99 8.277-2.573 12.183-4.816 5.097-2.927 9.399-6.709 12.86-11.057-.038.029 33.928-42.538 33.958-42.561-7.692-13.316-15.389-26.629-23.075-39.929-18.005 2.734-36.011 5.462-54.014 8.172-5.526.832-10.994 2.67-16.124 5.609z" fill="url(#SVGID_15_)"/><path d="m325.863 349.548c3.907 2.244 8.011 3.826 12.19 4.806.074.234 100.473 23.106 100.384 22.848 6.381 1.389 13.359-1.492 16.955-7.496 3.595-6.004 2.664-13.253-1.805-17.899.246.297-70.777-73.681-70.959-73.932-2.978-3.094-6.438-5.841-10.369-8.093-5.131-2.939-10.597-4.776-16.125-5.607.002.011-54.012-8.165-54.013-8.173-7.686 13.3-15.384 26.613-23.075 39.929 11.353 14.212 22.681 28.407 33.957 42.562 3.461 4.345 7.763 8.128 12.86 11.055z" fill="url(#SVGID_16_)"/><path d="m301.882 148.479c-.021-4.54-.706-8.926-1.943-13.077-.062.009-29.633-100.019-29.517-100.016-1.87-6.371-7.62-11.037-14.422-11.037-6.803-.001-12.552 4.666-14.412 11.037.107-.003-29.464 100.025-29.539 100.016-1.225 4.15-1.91 8.536-1.931 13.076-.027 5.923 1.076 11.575 3.087 16.771-.035-.013 19.728 50.807 19.753 50.818 15.361-.013 30.723-.013 46.084 0 6.614-16.952 13.207-33.894 19.754-50.818 2.011-5.195 3.113-10.847 3.086-16.77z" fill="url(#SVGID_17_)"/><path d="m302.125 256c-.005 25.438-20.686 46.12-46.125 46.125-25.439-.005-46.12-20.686-46.125-46.125.005-25.439 20.685-46.12 46.125-46.125 25.439.005 46.121 20.686 46.125 46.125z" fill="url(#SVGID_18_)"/><path d="m286.75 256c-.002 16.972-13.779 30.749-30.75 30.75-16.972-.001-30.748-13.778-30.75-30.75.002-16.972 13.778-30.749 30.75-30.75 16.972.001 30.749 13.778 30.75 30.75z" fill="url(#SVGID_19_)"/><path d="m263.687 271.375c-16.979.001-30.752-13.769-30.747-30.746 0-1.883.18-3.722.505-5.511-5.082 5.486-8.195 12.82-8.194 20.882.002 16.972 13.778 30.749 30.75 30.75 15.091-.001 27.645-10.896 30.247-25.24-5.619 6.062-13.646 9.864-22.561 9.865z" fill="url(#SVGID_20_)"/></g></svg>